<?xml version="1.0" encoding="utf-8"?>
<!-- Generator: Adobe Illustrator 23.0.3, SVG Export Plug-In . SVG Version: 6.00 Build 0)  -->
<svg version="1.1" id="Layer_1" xmlns="http://www.w3.org/2000/svg" xmlns:xlink="http://www.w3.org/1999/xlink" x="0px" y="0px"
	 viewBox="0 0 512 512" style="enable-background:new 0 0 512 512;" xml:space="preserve">
<style type="text/css">
	.st0{fill:#2C467F;}
	.st1{fill:#222155;}
	.st2{fill:#F5D95B;}
</style>
<g id="Page-1">
	<g>
		<path id="Shape" class="st0" d="M443.7,230.8v-171C443.7,26.8,417,0,384,0H59.7C26.8,0,0,26.8,0,59.7V384
			c0,33,26.8,59.7,59.7,59.7h171c34.5,51.6,96.7,77.4,157.6,65.3S496.9,449.3,509,388.4S495.4,265.3,443.7,230.8z M59.7,426.7
			c-23.6,0-42.6-19.1-42.7-42.7V59.7c0-23.6,19.1-42.6,42.7-42.7H384c23.6,0,42.6,19.1,42.7,42.7V221c-13.5-6.7-28-11.4-42.9-13.9
			c0.1-0.8,0.2-1.5,0.2-2.3c0-18.9-15.3-34.1-34.1-34.1H196.3c-18.9,0-34.1,15.3-34.1,34.1s15.3,34.1,34.1,34.1h25.6
			c4.7,0,8.5-3.8,8.5-8.5s-3.8-8.5-8.5-8.5h-25.6c-9.4,0-17.1-7.6-17.1-17.1c0-9.4,7.6-17.1,17.1-17.1h153.6
			c9.4,0,17.1,7.6,17.1,17.1c0,0.1,0,0.3,0,0.4c-2.8-0.2-5.6-0.4-8.5-0.4c-47.5,0-92.3,22.1-121.3,59.7h-40.8
			c-18.9,0-34.1,15.3-34.1,34.1c0,18.9,15.3,34.1,34.1,34.1h10.8c-5.7,32-0.8,64.9,13.9,93.9H59.7z M211,315.7h-14.7
			c-9.4,0-17.1-7.6-17.1-17.1s7.6-17.1,17.1-17.1h29.3C219.3,292.3,214.4,303.8,211,315.7L211,315.7z M358.4,494.9
			c-75.4,0-136.5-61.1-136.5-136.5S283,221.9,358.4,221.9S494.9,283,494.9,358.4C494.8,433.8,433.8,494.8,358.4,494.9z"/>
		<path class="st0" d="M358.4,418.1c-33,0-59.7-26.7-59.7-59.7s26.7-59.7,59.7-59.7s59.7,26.7,59.7,59.7c0,4.7,3.8,8.5,8.5,8.5
			s8.5-3.8,8.5-8.5c0-42.4-34.4-76.8-76.8-76.8s-76.8,34.4-76.8,76.8s34.4,76.8,76.8,76.8c4.7,0,8.5-3.8,8.5-8.5
			S363.1,418.1,358.4,418.1z"/>
		<path class="st0" d="M390.6,344.4c-3.1-3.5-8.3-3.9-11.9-0.9c-3.6,3-4.1,8.2-1.2,11.9l42.7,51.2c1.6,1.9,4,3.1,6.6,3.1
			c2.5,0,4.9-1.1,6.6-3.1l42.7-51.2c2-2.3,2.7-5.6,1.6-8.5s-3.6-5-6.6-5.5c-3.1-0.5-6.1,0.7-8.1,3.1l-36.1,43.3L390.6,344.4z"/>
		<path class="st0" d="M93.9,76.8c-18.9,0-34.1,15.3-34.1,34.1s15.3,34.1,34.1,34.1s34.1-15.3,34.1-34.1c0-9.1-3.6-17.7-10-24.1
			C111.6,80.4,102.9,76.8,93.9,76.8z M93.9,128c-9.4,0-17.1-7.6-17.1-17.1s7.6-17.1,17.1-17.1s17.1,7.6,17.1,17.1
			S103.3,128,93.9,128z"/>
		<path class="st0" d="M196.3,145.1h110.9c4.7,0,8.5-3.8,8.5-8.5s-3.8-8.5-8.5-8.5H196.3c-9.4,0-17.1-7.6-17.1-17.1
			s7.6-17.1,17.1-17.1h153.6c9.4,0,17.1,7.6,17.1,17.1s-7.6,17.1-17.1,17.1c-4.7,0-8.5,3.8-8.5,8.5s3.8,8.5,8.5,8.5
			c18.9,0,34.1-15.3,34.1-34.1s-15.3-34.1-34.1-34.1H196.3c-18.9,0-34.1,15.3-34.1,34.1S177.4,145.1,196.3,145.1z"/>
		<path class="st0" d="M93.9,170.7c-18.9,0-34.1,15.3-34.1,34.1s15.3,34.1,34.1,34.1s34.1-15.3,34.1-34.1S112.7,170.7,93.9,170.7z
			 M93.9,221.9c-9.4,0-17.1-7.6-17.1-17.1c0-9.4,7.6-17.1,17.1-17.1s17.1,7.6,17.1,17.1C110.9,214.2,103.3,221.9,93.9,221.9z"/>
		<path class="st0" d="M93.9,264.5c-18.9,0-34.1,15.3-34.1,34.1c0,18.9,15.3,34.1,34.1,34.1s34.1-15.3,34.1-34.1
			C128,279.8,112.7,264.5,93.9,264.5z M93.9,315.7c-9.4,0-17.1-7.6-17.1-17.1s7.6-17.1,17.1-17.1s17.1,7.6,17.1,17.1
			S103.3,315.7,93.9,315.7z"/>
	</g>
</g>
<rect x="-260.2" y="169.6" class="st1" width="36.2" height="36.2"/>
<rect x="-210.4" y="169.6" class="st0" width="36.2" height="36.2"/>
<rect x="-157.6" y="169.6" class="st2" width="36.2" height="36.2"/>
</svg>
