<?xml version="1.0" encoding="utf-8"?>
<!-- Generator: Adobe Illustrator 23.0.3, SVG Export Plug-In . SVG Version: 6.00 Build 0)  -->
<svg version="1.1" id="Capa_1" xmlns="http://www.w3.org/2000/svg" xmlns:xlink="http://www.w3.org/1999/xlink" x="0px" y="0px"
	 viewBox="0 0 512 512" style="enable-background:new 0 0 512 512;" xml:space="preserve">
<style type="text/css">
	.st0{fill:#2C467F;}
	.st1{fill:#222155;}
	.st2{fill:#F5D95B;}
</style>
<g>
	<g>
		<g>
			<path class="st0" d="M256,0C114.6,0,0,114.6,0,256s114.6,256,256,256s256-114.6,256-256S397.4,0,256,0z M256,480
				C132.3,480,32,379.7,32,256S132.3,32,256,32s224,100.3,224,224S379.7,480,256,480z"/>
			<path class="st0" d="M219.2,116.8l-22.6,22.6L313.4,256L196.8,372.8l22.6,22.6l127.8-128c6.2-6.2,6.2-16.3,0-22.6L219.2,116.8z"
				/>
		</g>
	</g>
</g>
<rect x="-197.2" y="183.7" class="st1" width="36.2" height="36.2"/>
<rect x="-147.4" y="183.7" class="st0" width="36.2" height="36.2"/>
<rect x="-94.6" y="183.7" class="st2" width="36.2" height="36.2"/>
</svg>
