<?xml version="1.0" encoding="utf-8"?>
<!-- Generator: Adobe Illustrator 23.0.3, SVG Export Plug-In . SVG Version: 6.00 Build 0)  -->
<svg version="1.1" id="Capa_1" xmlns="http://www.w3.org/2000/svg" xmlns:xlink="http://www.w3.org/1999/xlink" x="0px" y="0px"
	 viewBox="0 0 512 512" style="enable-background:new 0 0 512 512;" xml:space="preserve">
<style type="text/css">
	.st0{fill:#2C467F;}
	.st1{fill:#222155;}
	.st2{fill:#F5D95B;}
</style>
<g>
	<g>
		<path class="st0" d="M503.5,494.9H366c-6.3-32.4-48-57.1-101.5-59.5V110.9h59.7v34.1c0,9.4,7.6,17.1,17.1,17.1h110.9
			c9.4,0,17.1-7.6,17.1-17.1V76.1c0-9.4-7.6-17.1-17.1-17.1h-51.2V33.5c-0.2-9.2-7.8-16.6-17.1-16.4H264.5V8.5
			c0-4.7-3.8-8.5-8.5-8.5s-8.5,3.8-8.5,8.5v247.1c-5.2-3.1-11.1-4.7-17.1-4.7h-32.1c-4.5,0-8.9-1.8-12.1-5l-23.8-23.8
			c6-3.5,11.5-7.7,16.5-12.4c22.1-21.5,30.9-53.1,23-82.9c-7.8-29.8-31.1-53-60.8-60.8c-29.8-7.8-61.4,1-82.9,23
			c-16.1,16.5-24.9,38.8-24.1,61.9c1,26.1,13.8,50.4,34.8,65.9H46c-16,0-29,13-29,29v95.6c0,16,13,29,29,29h30.8v102.4
			c0,7.9,2.4,15.6,6.9,22.1H8.5c-4.7,0-8.5,3.8-8.5,8.5s3.8,8.5,8.5,8.5h494.9c4.7,0,8.5-3.8,8.5-8.5S508.2,494.9,503.5,494.9z
			 M398.1,108.9c0.1-0.1,0.1-0.2,0.2-0.3c0.7-0.7,1.3-1.6,1.8-2.4c0.1-0.3,0.3-0.6,0.4-0.9c0.3-0.7,0.4-1.5,0.5-2.3
			c0-0.2,0.1-0.3,0.1-0.5V76.1h51.2v68.9h-96.4L398.1,108.9z M341.3,135.1v-24.1h28.1L341.3,135.1z M264.5,34.1L384,33.5v60.4h-51.2
			c-0.5,0.1-1.1,0.2-1.6,0.3l-66.7,0.3L264.5,34.1L264.5,34.1z M128,80.8c30.9,3.9,55.3,28.3,59.2,59.2h-50.7
			c-4.7,0-8.5-3.8-8.5-8.5C128,131.5,128,80.8,128,80.8z M76.8,353.3H46c-6.6,0-11.9-5.3-11.9-11.9v-95.6c0-6.6,5.3-11.9,11.9-11.9
			h30.8V353.3z M51.2,150.5L51.2,150.5c-1-35.1,24.8-65.3,59.7-69.7v50.7c0,14.1,11.5,25.6,25.6,25.6h50.7
			c-4.4,34.9-34.6,60.7-69.7,59.7C81.5,215.3,52.7,186.5,51.2,150.5z M145.1,472.8c0,12.2-9.9,22.1-22.1,22.1H116
			c-12.2,0-22.1-9.9-22.1-22.1V368.9h51.2L145.1,472.8L145.1,472.8z M145.1,351.8H93.9V245.9l51.2,51.2V351.8z M105.9,233.9h44.1
			l24.1,24.1c6.4,6.4,15.1,10,24.1,10h32.1c9.4,0,17.1,7.6,17.1,17.1s-7.6,17.1-17.1,17.1h-49.1c-4.5,0-8.9-1.8-12.1-5l-9.6-9.6
			L105.9,233.9z M162.1,313.3c5.6,3.8,12.3,5.9,19.1,5.9h49.1c6,0,11.9-1.7,17.1-4.7v121c-36.4,1.6-67.3,13.6-85.3,31.3L162.1,313.3
			L162.1,313.3z M163.5,494.9c7.7-23.9,46.9-42.7,92.5-42.7s84.8,18.8,92.5,42.7H163.5z"/>
	</g>
</g>
<rect x="-189.7" y="172" class="st1" width="36.2" height="36.2"/>
<rect x="-139.9" y="172" class="st0" width="36.2" height="36.2"/>
<rect x="-87.1" y="172" class="st2" width="36.2" height="36.2"/>
</svg>
