<?xml version="1.0" encoding="utf-8"?>
<!-- Generator: Adobe Illustrator 23.0.3, SVG Export Plug-In . SVG Version: 6.00 Build 0)  -->
<svg version="1.1" id="Capa_1" xmlns="http://www.w3.org/2000/svg" xmlns:xlink="http://www.w3.org/1999/xlink" x="0px" y="0px"
	 viewBox="0 0 512 512" style="enable-background:new 0 0 512 512;" xml:space="preserve">
<style type="text/css">
	.st0{fill:#2C467F;}
	.st1{fill:#222155;}
	.st2{fill:#F5D95B;}
</style>
<g>
	<g>
		<path class="st0" d="M61.1,169.9c-1.9-1.9-4.4-2.9-7.1-2.9s-5.2,1.1-7.1,2.9c-1.9,1.9-2.9,4.4-2.9,7.1s1.1,5.2,2.9,7.1
			c1.9,1.9,4.4,2.9,7.1,2.9s5.2-1.1,7.1-2.9c1.9-1.9,2.9-4.4,2.9-7.1S62.9,171.8,61.1,169.9z"/>
	</g>
</g>
<g>
	<g>
		<path class="st0" d="M438,0H235.7c-5.5,0-10,4.5-10,10s4.5,10,10,10H438c5.5,0,10,4.5,10,10v452c0,5.5-4.5,10-10,10H74
			c-5.5,0-10-4.5-10-10V214.3c0-5.5-4.5-10-10-10s-10,4.5-10,10V482c0,16.5,13.5,30,30,30h364c16.5,0,30-13.5,30-30V30
			C468,13.5,454.5,0,438,0z"/>
	</g>
</g>
<g>
	<g>
		<path class="st0" d="M256,40c-6.8,0-13.6,0.5-20.3,1.5c-5.5,0.8-9.2,5.9-8.4,11.4c0.8,5.5,5.9,9.2,11.4,8.4
			c5.7-0.9,11.5-1.3,17.3-1.3c62.3,0,113,50.7,113,113c0,27.7-10,53-26.6,72.7c-7.3-12.6-17.3-23.5-29.5-31.9
			c-7.1-4.9-14.7-8.9-22.7-11.8c9.1-8.9,14.8-21.3,14.8-35v-9.8c0-27-22-49-49-49s-49,22-49,49v9.8c0,13.7,5.7,26.1,14.8,35
			c-8,2.9-15.6,6.8-22.7,11.8c-12.2,8.5-22.3,19.4-29.6,32.1c-12.6-15-21.5-33.5-24.9-54.1c-0.9-5.4-6.1-9.1-11.5-8.2
			c-5.4,0.9-9.1,6.1-8.2,11.5c5.1,30.7,21.1,58.7,44.8,79c24,20.5,54.7,31.8,86.3,31.8c73.3,0,133-59.7,133-133S329.3,40,256,40z
			 M227,157.3c0-16,13-29,29-29s29,13,29,29v9.8c0,16-13,29-29,29s-29-13-29-29V157.3z M256,286c-27.1,0-52.1-9.5-71.7-25.5
			c13.4-27.3,40.9-44.5,71.7-44.5c30.8,0,58.1,17.2,71.6,44.3C308.1,276.4,283.2,286,256,286z"/>
	</g>
</g>
<g>
	<g>
		<path class="st0" d="M348.4,398h-142c-5.5,0-10,4.5-10,10s4.5,10,10,10h142c5.5,0,10-4.5,10-10S353.9,398,348.4,398z"/>
	</g>
</g>
<g>
	<g>
		<path class="st0" d="M170.7,344.9c-1.9-1.9-4.4-2.9-7.1-2.9s-5.2,1.1-7.1,2.9s-2.9,4.4-2.9,7.1c0,2.6,1.1,5.2,2.9,7.1
			c1.9,1.9,4.4,2.9,7.1,2.9s5.2-1.1,7.1-2.9c1.9-1.9,2.9-4.4,2.9-7.1S172.6,346.8,170.7,344.9z"/>
	</g>
</g>
<g>
	<g>
		<path class="st0" d="M170.7,400.9c-1.9-1.9-4.4-2.9-7.1-2.9c-2.6,0-5.2,1.1-7.1,2.9s-2.9,4.4-2.9,7.1c0,2.6,1.1,5.2,2.9,7.1
			c1.9,1.9,4.4,2.9,7.1,2.9s5.2-1.1,7.1-2.9c1.9-1.9,2.9-4.4,2.9-7.1C173.6,405.4,172.6,402.8,170.7,400.9z"/>
	</g>
</g>
<g>
	<g>
		<path class="st0" d="M348.4,342h-142c-5.5,0-10,4.5-10,10s4.5,10,10,10h142c5.5,0,10-4.5,10-10S353.9,342,348.4,342z"/>
	</g>
</g>
<g>
	<g>
		<path class="st0" d="M161.6,57.6c-3.9-3.9-10.2-3.9-14.1,0l-32.6,32.6l-11.1-11.1c-3.9-3.9-10.2-3.9-14.1,0
			c-3.9,3.9-3.9,10.2,0,14.1l18.2,18.2c2,2,4.5,2.9,7.1,2.9s5.1-1,7.1-2.9l39.6-39.6C165.5,67.9,165.5,61.5,161.6,57.6z"/>
	</g>
</g>
<g>
	<g>
		<path class="st0" d="M126,0C80.8,0,44,36.8,44,82s36.8,82,82,82s82-36.8,82-82S171.2,0,126,0z M126,144c-34.2,0-62-27.8-62-62
			s27.8-62,62-62s62,27.8,62,62S160.2,144,126,144z"/>
	</g>
</g>
<rect x="-168.2" y="206.7" class="st1" width="36.2" height="36.2"/>
<rect x="-118.4" y="206.7" class="st0" width="36.2" height="36.2"/>
<rect x="-65.6" y="206.7" class="st2" width="36.2" height="36.2"/>
</svg>
