<?xml version="1.0" encoding="utf-8"?>
<!-- Generator: Adobe Illustrator 23.0.3, SVG Export Plug-In . SVG Version: 6.00 Build 0)  -->
<svg version="1.1" id="Layer_1" xmlns="http://www.w3.org/2000/svg" xmlns:xlink="http://www.w3.org/1999/xlink" x="0px" y="0px"
	 viewBox="0 0 512 512" style="enable-background:new 0 0 512 512;" xml:space="preserve">
<style type="text/css">
	.st0{fill:url(#SVGID_1_);}
	.st1{fill:url(#SVGID_2_);}
	.st2{fill:url(#SVGID_3_);}
	.st3{fill:url(#SVGID_4_);}
	.st4{fill:url(#SVGID_5_);}
	.st5{fill:url(#SVGID_6_);}
	.st6{fill:url(#SVGID_7_);}
</style>
<g>
	
		<linearGradient id="SVGID_1_" gradientUnits="userSpaceOnUse" x1="55.9" y1="285.5" x2="456.2" y2="285.5" gradientTransform="matrix(1 0 0 -1 0 514)">
		<stop  offset="0" style="stop-color:#CCB05C;stop-opacity:0.4"/>
		<stop  offset="1" style="stop-color:#CCB05C"/>
	</linearGradient>
	<path class="st0" d="M453.9,118.2l-38.3-38.3V22.8c0-12.5-10.2-22.8-22.8-22.8H78.4C66,0,55.9,10.1,55.9,22.5v377
		c0,12.4,10.1,22.5,22.5,22.5h12.7v12.5c0,12.4,10.1,22.5,22.5,22.5h48.8c4.1,0,7.5-3.4,7.5-7.5s-3.4-7.5-7.5-7.5h-48.8
		c-4.1,0-7.5-3.4-7.5-7.5V133c0-4.1-3.4-7.5-7.5-7.5s-7.5,3.4-7.5,7.5v274H78.4c-4.1,0-7.5-3.4-7.5-7.5v-377c0-4.1,3.4-7.5,7.5-7.5
		h314.5c4.3,0,7.8,3.5,7.8,7.8v42.1L373,37.2c-1.4-1.4-3.3-2.2-5.3-2.2h-254c-12.4,0-22.5,10.1-22.5,22.5V98c0,4.1,3.4,7.5,7.5,7.5
		s7.5-3.4,7.5-7.5V57.5c0-4.1,3.4-7.5,7.5-7.5h246.5v73.5c0,4.1,3.4,7.5,7.5,7.5h73.5v303.5c0,4.1-3.4,7.5-7.5,7.5h-48.2
		c-4.1,0-7.5,3.4-7.5,7.5s3.4,7.5,7.5,7.5h48.2c12.4,0,22.5-10.1,22.5-22.5v-311C456.1,121.5,455.3,119.6,453.9,118.2L453.9,118.2z
		 M375.1,116V60.6l55.4,55.4H375.1z"/>
	
		<linearGradient id="SVGID_2_" gradientUnits="userSpaceOnUse" x1="176.6" y1="331" x2="371" y2="331" gradientTransform="matrix(1 0 0 -1 0 514)">
		<stop  offset="0" style="stop-color:#CCB05C;stop-opacity:0.4"/>
		<stop  offset="1" style="stop-color:#CCB05C"/>
	</linearGradient>
	<path class="st1" d="M363.5,175.5H184.1c-4.1,0-7.5,3.4-7.5,7.5s3.4,7.5,7.5,7.5h179.4c4.1,0,7.5-3.4,7.5-7.5
		S367.6,175.5,363.5,175.5z"/>
	
		<linearGradient id="SVGID_3_" gradientUnits="userSpaceOnUse" x1="176.6" y1="286.8" x2="371" y2="286.8" gradientTransform="matrix(1 0 0 -1 0 514)">
		<stop  offset="0" style="stop-color:#CCB05C;stop-opacity:0.4"/>
		<stop  offset="1" style="stop-color:#CCB05C"/>
	</linearGradient>
	<path class="st2" d="M363.5,219.7H184.1c-4.1,0-7.5,3.4-7.5,7.5s3.4,7.5,7.5,7.5h179.4c4.1,0,7.5-3.4,7.5-7.5
		S367.6,219.7,363.5,219.7z"/>
	
		<linearGradient id="SVGID_4_" gradientUnits="userSpaceOnUse" x1="320.5" y1="241.7" x2="370.9" y2="241.7" gradientTransform="matrix(1 0 0 -1 0 514)">
		<stop  offset="0" style="stop-color:#CCB05C;stop-opacity:0.4"/>
		<stop  offset="1" style="stop-color:#CCB05C"/>
	</linearGradient>
	<path class="st3" d="M363.5,264.8H328c-4.1,0-7.5,3.4-7.5,7.5s3.4,7.5,7.5,7.5h35.4c4.1,0,7.5-3.4,7.5-7.5S367.6,264.8,363.5,264.8
		z"/>
	
		<linearGradient id="SVGID_5_" gradientUnits="userSpaceOnUse" x1="176.6" y1="241.7" x2="300.2" y2="241.7" gradientTransform="matrix(1 0 0 -1 0 514)">
		<stop  offset="0" style="stop-color:#CCB05C;stop-opacity:0.4"/>
		<stop  offset="1" style="stop-color:#CCB05C"/>
	</linearGradient>
	<path class="st4" d="M292.7,279.8c4.1,0,7.5-3.4,7.5-7.5s-3.4-7.5-7.5-7.5H184.1c-4.1,0-7.5,3.4-7.5,7.5s3.4,7.5,7.5,7.5H292.7z"/>
	
		<linearGradient id="SVGID_6_" gradientUnits="userSpaceOnUse" x1="233.525" y1="96.2" x2="314.0749" y2="96.2" gradientTransform="matrix(1 0 0 -1 0 514)">
		<stop  offset="0" style="stop-color:#CCB05C;stop-opacity:0.4"/>
		<stop  offset="1" style="stop-color:#CCB05C"/>
	</linearGradient>
	<path class="st5" d="M301.3,425l-20,20v-72.5c0-4.1-3.4-7.5-7.5-7.5s-7.5,3.4-7.5,7.5V445l-20-20c-2.9-2.9-7.7-2.9-10.6,0
		c-2.9,2.9-2.9,7.7,0,10.6l32.8,32.8c1.5,1.5,3.4,2.2,5.3,2.2s3.8-0.7,5.3-2.2l32.8-32.8c2.9-2.9,2.9-7.7,0-10.6
		C309,422.1,304.2,422.1,301.3,425L301.3,425z"/>
	
		<linearGradient id="SVGID_7_" gradientUnits="userSpaceOnUse" x1="179.6" y1="96.2" x2="368" y2="96.2" gradientTransform="matrix(1 0 0 -1 0 514)">
		<stop  offset="0" style="stop-color:#CCB05C;stop-opacity:0.4"/>
		<stop  offset="1" style="stop-color:#CCB05C"/>
	</linearGradient>
	<path class="st6" d="M273.8,323.6c-51.9,0-94.2,42.3-94.2,94.2s42.3,94.2,94.2,94.2s94.2-42.3,94.2-94.2S325.7,323.6,273.8,323.6z
		 M273.8,497c-43.7,0-79.2-35.5-79.2-79.2s35.5-79.2,79.2-79.2s79.2,35.5,79.2,79.2S317.4,497,273.8,497z"/>
</g>
</svg>
