<?xml version="1.0" encoding="utf-8"?>
<!-- Generator: Adobe Illustrator 23.0.3, SVG Export Plug-In . SVG Version: 6.00 Build 0)  -->
<svg version="1.1" id="Capa_1" xmlns="http://www.w3.org/2000/svg" xmlns:xlink="http://www.w3.org/1999/xlink" x="0px" y="0px"
	 viewBox="0 0 493.2 493.2" style="enable-background:new 0 0 493.2 493.2;" xml:space="preserve">
<style type="text/css">
	.st0{fill:url(#SVGID_1_);}
	.st1{fill:url(#SVGID_2_);}
	.st2{fill:url(#SVGID_3_);}
	.st3{fill:url(#SVGID_4_);}
	.st4{fill:url(#SVGID_5_);}
	.st5{fill:url(#SVGID_6_);}
	.st6{fill:url(#SVGID_7_);}
	.st7{fill:url(#SVGID_8_);}
	.st8{fill:url(#SVGID_9_);}
	.st9{fill:url(#SVGID_10_);}
	.st10{fill:url(#SVGID_11_);}
	.st11{fill:url(#SVGID_12_);}
	.st12{fill:url(#SVGID_13_);}
</style>
<g>
	<g>
		<g>
			
				<linearGradient id="SVGID_1_" gradientUnits="userSpaceOnUse" x1="5.5" y1="249.4794" x2="487.6585" y2="249.4794" gradientTransform="matrix(1 0 0 -1 0 496)">
				<stop  offset="0" style="stop-color:#CCB05C;stop-opacity:0.4"/>
				<stop  offset="1" style="stop-color:#CCB05C"/>
			</linearGradient>
			<path class="st0" d="M487.4,454.1L487.4,454.1L367.3,5.9c-1.1-4.3-5.5-6.8-9.8-5.7l-108.2,29c-1.5,0.4-2.8,1.3-3.8,2.5V14.6
				c0-4.4-3.6-8-8-8h-224c-4.4,0-8,3.6-8,8v464c0,4.4,3.6,8,8,8h224c4.4,0,8-3.6,8-8V46l118.2,441.2c0.9,3.5,4.1,5.9,7.7,5.9
				c0.7,0,1.4-0.1,2-0.3l108.2-29C486,462.8,488.5,458.4,487.4,454.1z M117.5,470.6h-96v-448h96V470.6z M229.5,470.6h-96v-448h96
				V470.6z M377.1,475.4L261.2,42.6l92.7-24.9l115.9,432.7L377.1,475.4z"/>
		</g>
	</g>
	<g>
		<g>
			
				<linearGradient id="SVGID_2_" gradientUnits="userSpaceOnUse" x1="37.5" y1="433.4" x2="101.5" y2="433.4" gradientTransform="matrix(1 0 0 -1 0 496)">
				<stop  offset="0" style="stop-color:#CCB05C;stop-opacity:0.4"/>
				<stop  offset="1" style="stop-color:#CCB05C"/>
			</linearGradient>
			<path class="st1" d="M93.5,54.6h-48c-4.4,0-8,3.6-8,8s3.6,8,8,8h48c4.4,0,8-3.6,8-8S97.9,54.6,93.5,54.6z"/>
		</g>
	</g>
	<g>
		<g>
			
				<linearGradient id="SVGID_3_" gradientUnits="userSpaceOnUse" x1="37.5" y1="401.4" x2="101.5" y2="401.4" gradientTransform="matrix(1 0 0 -1 0 496)">
				<stop  offset="0" style="stop-color:#CCB05C;stop-opacity:0.4"/>
				<stop  offset="1" style="stop-color:#CCB05C"/>
			</linearGradient>
			<path class="st2" d="M93.5,86.6h-48c-4.4,0-8,3.6-8,8s3.6,8,8,8h48c4.4,0,8-3.6,8-8S97.9,86.6,93.5,86.6z"/>
		</g>
	</g>
	<g>
		<g>
			
				<linearGradient id="SVGID_4_" gradientUnits="userSpaceOnUse" x1="149.5" y1="433.4" x2="213.5" y2="433.4" gradientTransform="matrix(1 0 0 -1 0 496)">
				<stop  offset="0" style="stop-color:#CCB05C;stop-opacity:0.4"/>
				<stop  offset="1" style="stop-color:#CCB05C"/>
			</linearGradient>
			<path class="st3" d="M205.5,54.6h-48c-4.4,0-8,3.6-8,8s3.6,8,8,8h48c4.4,0,8-3.6,8-8S209.9,54.6,205.5,54.6z"/>
		</g>
	</g>
	<g>
		<g>
			
				<linearGradient id="SVGID_5_" gradientUnits="userSpaceOnUse" x1="149.5" y1="401.4" x2="213.5" y2="401.4" gradientTransform="matrix(1 0 0 -1 0 496)">
				<stop  offset="0" style="stop-color:#CCB05C;stop-opacity:0.4"/>
				<stop  offset="1" style="stop-color:#CCB05C"/>
			</linearGradient>
			<path class="st4" d="M205.5,86.6h-48c-4.4,0-8,3.6-8,8s3.6,8,8,8h48c4.4,0,8-3.6,8-8S209.9,86.6,205.5,86.6z"/>
		</g>
	</g>
	<g>
		<g>
			
				<linearGradient id="SVGID_6_" gradientUnits="userSpaceOnUse" x1="286.6411" y1="427.1774" x2="349.2463" y2="427.1774" gradientTransform="matrix(1 0 0 -1 0 496)">
				<stop  offset="0" style="stop-color:#CCB05C;stop-opacity:0.4"/>
				<stop  offset="1" style="stop-color:#CCB05C"/>
			</linearGradient>
			<path class="st5" d="M349,60.7c-1-4.3-5.3-6.9-9.6-5.9c-0.1,0-0.3,0.1-0.4,0.1l-46.4,12.4c-4.3,1.1-6.8,5.5-5.7,9.8
				s5.5,6.8,9.8,5.7c0,0,0,0,0.1,0l46.4-12.4C347.4,69.3,350.1,65,349,60.7z"/>
		</g>
	</g>
	<g>
		<g>
			
				<linearGradient id="SVGID_7_" gradientUnits="userSpaceOnUse" x1="294.9411" y1="396.25" x2="357.3935" y2="396.25" gradientTransform="matrix(1 0 0 -1 0 496)">
				<stop  offset="0" style="stop-color:#CCB05C;stop-opacity:0.4"/>
				<stop  offset="1" style="stop-color:#CCB05C"/>
			</linearGradient>
			<path class="st6" d="M357.1,91.5c-1.1-4.3-5.5-6.8-9.8-5.7l0,0l-46.4,12.4c-4.3,1.1-6.8,5.5-5.7,9.8s5.5,6.8,9.8,5.7
				c0,0,0,0,0.1,0l46.4-12.4C355.7,100.1,358.3,95.8,357.1,91.5z"/>
		</g>
	</g>
	<g>
		<g>
			
				<linearGradient id="SVGID_8_" gradientUnits="userSpaceOnUse" x1="373.6411" y1="102.5797" x2="436.0005" y2="102.5797" gradientTransform="matrix(1 0 0 -1 0 496)">
				<stop  offset="0" style="stop-color:#CCB05C;stop-opacity:0.4"/>
				<stop  offset="1" style="stop-color:#CCB05C"/>
			</linearGradient>
			<path class="st7" d="M435.7,385.1c-1.2-4.2-5.5-6.7-9.7-5.6l-46.4,12.4c-4.3,1.1-6.8,5.5-5.7,9.8c0.9,3.5,4.1,5.9,7.7,5.9l0,0
				c0.7,0,1.4-0.1,2.1-0.3l46.4-12.4C434.4,393.8,436.9,389.4,435.7,385.1z"/>
		</g>
	</g>
	<g>
		<g>
			
				<linearGradient id="SVGID_9_" gradientUnits="userSpaceOnUse" x1="382.0411" y1="71.6797" x2="444.3593" y2="71.6797" gradientTransform="matrix(1 0 0 -1 0 496)">
				<stop  offset="0" style="stop-color:#CCB05C;stop-opacity:0.4"/>
				<stop  offset="1" style="stop-color:#CCB05C"/>
			</linearGradient>
			<path class="st8" d="M444.1,416c-1.2-4.2-5.5-6.7-9.7-5.6L388,422.8c-4.3,1.1-6.8,5.5-5.7,9.8c0.9,3.5,4.1,5.9,7.7,5.9
				c0.7,0,1.4-0.1,2.1-0.3l46.4-12.4C442.7,424.7,445.2,420.3,444.1,416z"/>
		</g>
	</g>
	<g>
		<g>
			
				<linearGradient id="SVGID_10_" gradientUnits="userSpaceOnUse" x1="149.5" y1="97.4" x2="213.5" y2="97.4" gradientTransform="matrix(1 0 0 -1 0 496)">
				<stop  offset="0" style="stop-color:#CCB05C;stop-opacity:0.4"/>
				<stop  offset="1" style="stop-color:#CCB05C"/>
			</linearGradient>
			<path class="st9" d="M205.5,390.6h-48c-4.4,0-8,3.6-8,8s3.6,8,8,8h48c4.4,0,8-3.6,8-8S209.9,390.6,205.5,390.6z"/>
		</g>
	</g>
	<g>
		<g>
			
				<linearGradient id="SVGID_11_" gradientUnits="userSpaceOnUse" x1="149.5" y1="65.4" x2="213.5" y2="65.4" gradientTransform="matrix(1 0 0 -1 0 496)">
				<stop  offset="0" style="stop-color:#CCB05C;stop-opacity:0.4"/>
				<stop  offset="1" style="stop-color:#CCB05C"/>
			</linearGradient>
			<path class="st10" d="M205.5,422.6h-48c-4.4,0-8,3.6-8,8s3.6,8,8,8h48c4.4,0,8-3.6,8-8S209.9,422.6,205.5,422.6z"/>
		</g>
	</g>
	<g>
		<g>
			
				<linearGradient id="SVGID_12_" gradientUnits="userSpaceOnUse" x1="37.5" y1="97.4" x2="101.5" y2="97.4" gradientTransform="matrix(1 0 0 -1 0 496)">
				<stop  offset="0" style="stop-color:#CCB05C;stop-opacity:0.4"/>
				<stop  offset="1" style="stop-color:#CCB05C"/>
			</linearGradient>
			<path class="st11" d="M93.5,390.6h-48c-4.4,0-8,3.6-8,8s3.6,8,8,8h48c4.4,0,8-3.6,8-8S97.9,390.6,93.5,390.6z"/>
		</g>
	</g>
	<g>
		<g>
			
				<linearGradient id="SVGID_13_" gradientUnits="userSpaceOnUse" x1="37.5" y1="65.4" x2="101.5" y2="65.4" gradientTransform="matrix(1 0 0 -1 0 496)">
				<stop  offset="0" style="stop-color:#CCB05C;stop-opacity:0.4"/>
				<stop  offset="1" style="stop-color:#CCB05C"/>
			</linearGradient>
			<path class="st12" d="M93.5,422.6h-48c-4.4,0-8,3.6-8,8s3.6,8,8,8h48c4.4,0,8-3.6,8-8S97.9,422.6,93.5,422.6z"/>
		</g>
	</g>
</g>
</svg>
