<?xml version="1.0" encoding="utf-8"?>
<!-- Generator: Adobe Illustrator 23.0.3, SVG Export Plug-In . SVG Version: 6.00 Build 0)  -->
<svg version="1.1" id="Layer_1" xmlns="http://www.w3.org/2000/svg" xmlns:xlink="http://www.w3.org/1999/xlink" x="0px" y="0px"
	 viewBox="0 0 496 496" style="enable-background:new 0 0 496 496;" xml:space="preserve">
<style type="text/css">
	.st0{fill:url(#SVGID_1_);}
	.st1{fill:url(#SVGID_2_);}
	.st2{fill:url(#SVGID_3_);}
	.st3{fill:url(#SVGID_4_);}
	.st4{fill:url(#SVGID_5_);}
	.st5{fill:url(#SVGID_6_);}
	.st6{fill:url(#SVGID_7_);}
	.st7{fill:url(#SVGID_8_);}
	.st8{fill:url(#SVGID_9_);}
	.st9{fill:url(#SVGID_10_);}
	.st10{fill:url(#SVGID_11_);}
	.st11{fill:url(#SVGID_12_);}
	.st12{fill:url(#SVGID_13_);}
	.st13{fill:url(#SVGID_14_);}
</style>
<g>
	
		<linearGradient id="SVGID_1_" gradientUnits="userSpaceOnUse" x1="0" y1="250" x2="496" y2="250" gradientTransform="matrix(1 0 0 -1 0 498)">
		<stop  offset="0" style="stop-color:#CCB05C;stop-opacity:0.4"/>
		<stop  offset="1" style="stop-color:#CCB05C"/>
	</linearGradient>
	<path class="st0" d="M456,112h-8V0H48v112h-8c-22.1,0-40,17.9-40,40v256c0,22.1,17.9,40,40,40h104v32h-32v16h272v-16h-32v-32h104
		c22.1,0,40-17.9,40-40V152C496,129.9,478.1,112,456,112z M64,80h368v256H64V80z M432,16v48H64V16H432z M40,128h8v224h400V128h8
		c13.2,0,24,10.8,24,24v216H16V152C16,138.8,26.8,128,40,128z M336,480H160v-32h176V480z M456,432H40c-13.2,0-24-10.8-24-24v-24h464
		v24C480,421.2,469.2,432,456,432z"/>
	
		<linearGradient id="SVGID_2_" gradientUnits="userSpaceOnUse" x1="48" y1="90" x2="64" y2="90" gradientTransform="matrix(1 0 0 -1 0 498)">
		<stop  offset="0" style="stop-color:#CCB05C;stop-opacity:0.4"/>
		<stop  offset="1" style="stop-color:#CCB05C"/>
	</linearGradient>
	<path class="st1" d="M48,400h16v16H48V400z"/>
	
		<linearGradient id="SVGID_3_" gradientUnits="userSpaceOnUse" x1="80" y1="90" x2="96" y2="90" gradientTransform="matrix(1 0 0 -1 0 498)">
		<stop  offset="0" style="stop-color:#CCB05C;stop-opacity:0.4"/>
		<stop  offset="1" style="stop-color:#CCB05C"/>
	</linearGradient>
	<path class="st2" d="M80,400h16v16H80V400z"/>
	
		<linearGradient id="SVGID_4_" gradientUnits="userSpaceOnUse" x1="112" y1="90" x2="128" y2="90" gradientTransform="matrix(1 0 0 -1 0 498)">
		<stop  offset="0" style="stop-color:#CCB05C;stop-opacity:0.4"/>
		<stop  offset="1" style="stop-color:#CCB05C"/>
	</linearGradient>
	<path class="st3" d="M112,400h16v16h-16V400z"/>
	
		<linearGradient id="SVGID_5_" gradientUnits="userSpaceOnUse" x1="80" y1="458" x2="96" y2="458" gradientTransform="matrix(1 0 0 -1 0 498)">
		<stop  offset="0" style="stop-color:#CCB05C;stop-opacity:0.4"/>
		<stop  offset="1" style="stop-color:#CCB05C"/>
	</linearGradient>
	<path class="st4" d="M80,32h16v16H80V32z"/>
	
		<linearGradient id="SVGID_6_" gradientUnits="userSpaceOnUse" x1="112" y1="458" x2="128" y2="458" gradientTransform="matrix(1 0 0 -1 0 498)">
		<stop  offset="0" style="stop-color:#CCB05C;stop-opacity:0.4"/>
		<stop  offset="1" style="stop-color:#CCB05C"/>
	</linearGradient>
	<path class="st5" d="M112,32h16v16h-16V32z"/>
	
		<linearGradient id="SVGID_7_" gradientUnits="userSpaceOnUse" x1="144" y1="458" x2="160" y2="458" gradientTransform="matrix(1 0 0 -1 0 498)">
		<stop  offset="0" style="stop-color:#CCB05C;stop-opacity:0.4"/>
		<stop  offset="1" style="stop-color:#CCB05C"/>
	</linearGradient>
	<path class="st6" d="M144,32h16v16h-16V32z"/>
	
		<linearGradient id="SVGID_8_" gradientUnits="userSpaceOnUse" x1="80" y1="321.9287" x2="240" y2="321.9287" gradientTransform="matrix(1 0 0 -1 0 498)">
		<stop  offset="0" style="stop-color:#CCB05C;stop-opacity:0.4"/>
		<stop  offset="1" style="stop-color:#CCB05C"/>
	</linearGradient>
	<path class="st7" d="M211,193.7l-27-7.7v-2.1c10-7.5,16-19.3,16-31.8v-14.3c0-21.5-16-39.7-36.4-41.5c-11.2-1-22.3,2.8-30.6,10.4
		s-13,18.3-13,29.5v16c0,12.5,6,24.3,16,31.8v2.1l-27,7.7c-17.1,4.9-29,20.7-29,38.5V256h160v-23.9C240,214.4,228.1,198.6,211,193.7
		z M224,240H96v-7.9c0-10.7,7.2-20.2,17.4-23.1l38.6-11v-23l-4-2.3c-7.5-4.4-12-12.1-12-20.6v-16c0-6.7,2.8-13.2,7.8-17.7
		c5-4.6,11.5-6.8,18.4-6.2c12.2,1.1,21.8,12.3,21.8,25.6V152c0,8.5-4.5,16.3-12,20.6l-4,2.3V198l38.6,11
		c10.2,2.9,17.4,12.4,17.4,23.1V240z"/>
	
		<linearGradient id="SVGID_9_" gradientUnits="userSpaceOnUse" x1="80" y1="218" x2="240" y2="218" gradientTransform="matrix(1 0 0 -1 0 498)">
		<stop  offset="0" style="stop-color:#CCB05C;stop-opacity:0.4"/>
		<stop  offset="1" style="stop-color:#CCB05C"/>
	</linearGradient>
	<path class="st8" d="M80,272h160v16H80V272z"/>
	
		<linearGradient id="SVGID_10_" gradientUnits="userSpaceOnUse" x1="80" y1="186" x2="240" y2="186" gradientTransform="matrix(1 0 0 -1 0 498)">
		<stop  offset="0" style="stop-color:#CCB05C;stop-opacity:0.4"/>
		<stop  offset="1" style="stop-color:#CCB05C"/>
	</linearGradient>
	<path class="st9" d="M80,304h160v16H80V304z"/>
	
		<linearGradient id="SVGID_11_" gradientUnits="userSpaceOnUse" x1="256" y1="242" x2="416" y2="242" gradientTransform="matrix(1 0 0 -1 0 498)">
		<stop  offset="0" style="stop-color:#CCB05C;stop-opacity:0.4"/>
		<stop  offset="1" style="stop-color:#CCB05C"/>
	</linearGradient>
	<path class="st10" d="M256,320h160V192H256V320z M272,208h128v96H272V208z"/>
	
		<linearGradient id="SVGID_12_" gradientUnits="userSpaceOnUse" x1="256" y1="394" x2="416" y2="394" gradientTransform="matrix(1 0 0 -1 0 498)">
		<stop  offset="0" style="stop-color:#CCB05C;stop-opacity:0.4"/>
		<stop  offset="1" style="stop-color:#CCB05C"/>
	</linearGradient>
	<path class="st11" d="M256,96h160v16H256V96z"/>
	
		<linearGradient id="SVGID_13_" gradientUnits="userSpaceOnUse" x1="256" y1="362" x2="416" y2="362" gradientTransform="matrix(1 0 0 -1 0 498)">
		<stop  offset="0" style="stop-color:#CCB05C;stop-opacity:0.4"/>
		<stop  offset="1" style="stop-color:#CCB05C"/>
	</linearGradient>
	<path class="st12" d="M256,128h160v16H256V128z"/>
	
		<linearGradient id="SVGID_14_" gradientUnits="userSpaceOnUse" x1="256" y1="330" x2="368" y2="330" gradientTransform="matrix(1 0 0 -1 0 498)">
		<stop  offset="0" style="stop-color:#CCB05C;stop-opacity:0.4"/>
		<stop  offset="1" style="stop-color:#CCB05C"/>
	</linearGradient>
	<path class="st13" d="M256,160h112v16H256V160z"/>
</g>
</svg>
