<?xml version="1.0" encoding="utf-8"?>
<!-- Generator: Adobe Illustrator 24.0.2, SVG Export Plug-In . SVG Version: 6.00 Build 0)  -->
<svg version="1.1" id="Layer_1" xmlns="http://www.w3.org/2000/svg" xmlns:xlink="http://www.w3.org/1999/xlink" x="0px" y="0px"
	 viewBox="0 0 65 65" style="enable-background:new 0 0 65 65;" xml:space="preserve">
<style type="text/css">
	.st0{fill:url(#SVGID_1_);}
	.st1{fill:url(#SVGID_2_);}
	.st2{fill:url(#SVGID_3_);}
	.st3{fill:url(#SVGID_4_);}
	.st4{fill:url(#SVGID_5_);}
	.st5{fill:url(#SVGID_6_);}
	.st6{fill:url(#SVGID_7_);}
</style>
<title>Artboard 1</title>
<g>
	<linearGradient id="SVGID_1_" gradientUnits="userSpaceOnUse" x1="29.7" y1="0.8528" x2="29.7" y2="65.2046">
		<stop  offset="0" style="stop-color:#CCB05C;stop-opacity:0.4"/>
		<stop  offset="1" style="stop-color:#CCB05C"/>
	</linearGradient>
	<path class="st0" d="M16.8,48.4c0.1,0,0.1,0,0.2,0h25.4c0.6,0.1,1.1-0.4,1.2-1c0.1-0.6-0.4-1.1-1-1.2c-0.1,0-0.1,0-0.2,0H17
		c-0.6-0.1-1.1,0.4-1.2,1C15.7,47.8,16.2,48.3,16.8,48.4z"/>
	<linearGradient id="SVGID_2_" gradientUnits="userSpaceOnUse" x1="12.3" y1="0.8528" x2="12.3" y2="65.2046">
		<stop  offset="0" style="stop-color:#CCB05C;stop-opacity:0.4"/>
		<stop  offset="1" style="stop-color:#CCB05C"/>
	</linearGradient>
	<path class="st1" d="M12.3,48.4c0.6,0,1.1-0.5,1.1-1.1c0-0.3-0.1-0.5-0.3-0.7c-0.2-0.2-0.5-0.3-0.8-0.3c-0.6,0-1,0.5-1.1,1
		c0,0.3,0.1,0.6,0.3,0.8C11.7,48.3,12,48.4,12.3,48.4z"/>
	<linearGradient id="SVGID_3_" gradientUnits="userSpaceOnUse" x1="29.6436" y1="0.8528" x2="29.6436" y2="65.2046">
		<stop  offset="0" style="stop-color:#CCB05C;stop-opacity:0.4"/>
		<stop  offset="1" style="stop-color:#CCB05C"/>
	</linearGradient>
	<path class="st2" d="M16.8,56.6c0.1-0.1,0.1-0.1,0.2-0.1h25.4c0.6,0,1.1-0.5,1.1-1.1c0-0.3-0.1-0.5-0.3-0.7s-0.5-0.3-0.8-0.3H17
		c-0.6-0.1-1.1,0.4-1.2,1C15.7,56,16.2,56.5,16.8,56.6z"/>
	<linearGradient id="SVGID_4_" gradientUnits="userSpaceOnUse" x1="12.3" y1="0.8528" x2="12.3" y2="65.2046">
		<stop  offset="0" style="stop-color:#CCB05C;stop-opacity:0.4"/>
		<stop  offset="1" style="stop-color:#CCB05C"/>
	</linearGradient>
	<path class="st3" d="M12.3,56.5c0.6,0,1.1-0.5,1.1-1.1c0-0.3-0.1-0.5-0.3-0.7c-0.2-0.2-0.5-0.3-0.8-0.3c-0.6,0-1,0.4-1.1,1
		c0,0.3,0.1,0.6,0.3,0.8C11.7,56.3,12,56.4,12.3,56.5z"/>
	<linearGradient id="SVGID_5_" gradientUnits="userSpaceOnUse" x1="27.1936" y1="0.8528" x2="27.1936" y2="65.2046">
		<stop  offset="0" style="stop-color:#CCB05C;stop-opacity:0.4"/>
		<stop  offset="1" style="stop-color:#CCB05C"/>
	</linearGradient>
	<path class="st4" d="M22.4,32.3c0.2,0,0.3,0,0.4,0h3.5v3.5c0.1,0.6,0.6,1,1.2,1c0.5,0,0.9-0.4,1-1v-3.5H32c0.6,0,1-0.5,1-1.1
		c0-0.6-0.4-1-1-1c0,0,0,0-0.1,0h-3.6v-3.6c-0.1-0.6-0.6-1-1.2-1c-0.5,0-0.9,0.4-1,1v3.5h-3.5c-0.6-0.1-1.1,0.4-1.2,1
		C21.3,31.7,21.8,32.2,22.4,32.3z"/>
	<linearGradient id="SVGID_6_" gradientUnits="userSpaceOnUse" x1="27.4" y1="0.8528" x2="27.4" y2="65.2046">
		<stop  offset="0" style="stop-color:#CCB05C;stop-opacity:0.4"/>
		<stop  offset="1" style="stop-color:#CCB05C"/>
	</linearGradient>
	<path class="st5" d="M27.4,42.1c6,0,10.9-4.9,10.9-10.9s-4.9-10.9-10.9-10.9s-10.9,4.9-10.9,10.9S21.3,42.1,27.4,42.1z M27.4,22.5
		c4.8,0,8.8,3.9,8.8,8.8c0,4.8-3.9,8.8-8.8,8.8c-4.8,0-8.8-3.9-8.8-8.8C18.6,26.4,22.5,22.5,27.4,22.5z"/>
	<linearGradient id="SVGID_7_" gradientUnits="userSpaceOnUse" x1="32.55" y1="0.8528" x2="32.55" y2="65.2046">
		<stop  offset="0" style="stop-color:#CCB05C;stop-opacity:0.4"/>
		<stop  offset="1" style="stop-color:#CCB05C"/>
	</linearGradient>
	<path class="st6" d="M57.5,0.5H17.8c-2,0-3.6,1.6-3.6,3.6v7H7.5c-2,0-3.6,1.6-3.6,3.6V61c0,2,1.6,3.6,3.6,3.6h39.8
		c2,0,3.6-1.6,3.6-3.6V23.3c0-0.3-0.1-0.6-0.3-0.8L39.3,11.4c-0.2-0.2-0.5-0.3-0.8-0.3H16.3v-7c0-0.8,0.7-1.5,1.5-1.5h39.8
		c0.8,0,1.5,0.7,1.5,1.5v46.3c0,0.8-0.7,1.5-1.5,1.5h-2.9c-0.6,0-1.1,0.5-1.1,1.1s0.5,1.1,1.1,1.1h2.9c2,0,3.6-1.6,3.6-3.6V4.1
		C61.1,2.1,59.5,0.5,57.5,0.5z M39.6,14.7l7.6,7.6h-6.1c-0.8,0-1.5-0.7-1.5-1.5V14.7z M37.5,13.1v0.1v7.6c0,2,1.6,3.6,3.6,3.6h7.6
		V61c0,0.8-0.7,1.5-1.5,1.5H7.5C6.7,62.5,6,61.8,6,61V14.6c0-0.8,0.7-1.5,1.5-1.5H37.5z"/>
</g>
</svg>
