<?xml version="1.0" encoding="utf-8"?>
<!-- Generator: Adobe Illustrator 23.0.3, SVG Export Plug-In . SVG Version: 6.00 Build 0)  -->
<svg version="1.1" id="Capa_1" xmlns="http://www.w3.org/2000/svg" xmlns:xlink="http://www.w3.org/1999/xlink" x="0px" y="0px"
	 viewBox="0 0 512 512" style="enable-background:new 0 0 512 512;" xml:space="preserve">
<style type="text/css">
	.st0{fill:url(#SVGID_1_);}
	.st1{fill:url(#SVGID_2_);}
	.st2{fill:url(#SVGID_3_);}
	.st3{fill:url(#SVGID_4_);}
	.st4{fill:url(#SVGID_5_);}
	.st5{fill:url(#SVGID_6_);}
</style>
<g>
	
		<linearGradient id="SVGID_1_" gradientUnits="userSpaceOnUse" x1="245.86" y1="475.5" x2="265.86" y2="475.5" gradientTransform="matrix(1 0 0 -1 0 514)">
		<stop  offset="0" style="stop-color:#CCB05C;stop-opacity:0.4"/>
		<stop  offset="1" style="stop-color:#CCB05C"/>
	</linearGradient>
	<path class="st0" d="M255.9,48.5c5.5,0,10-4.5,10-10s-4.5-10-10-10s-10,4.5-10,10S250.3,48.5,255.9,48.5z"/>
	
		<linearGradient id="SVGID_2_" gradientUnits="userSpaceOnUse" x1="0" y1="258" x2="512" y2="258" gradientTransform="matrix(1 0 0 -1 0 514)">
		<stop  offset="0" style="stop-color:#CCB05C;stop-opacity:0.4"/>
		<stop  offset="1" style="stop-color:#CCB05C"/>
	</linearGradient>
	<path class="st1" d="M508.1,59c-2.5-6-6.1-11.3-10.7-15.9s-9.9-8.2-15.9-10.7c-6.2-2.6-12.7-3.9-19.5-3.9H300.9
		c-5.5,0-10,4.5-10,10s4.5,10,10,10H462c16.5,0,30,13.5,30,30v230H20v-230c0-16.5,13.5-30,30-30h160.9c5.5,0,10-4.5,10-10
		s-4.5-10-10-10H50c-6.8,0-13.3,1.3-19.5,3.9c-6,2.5-11.3,6.1-15.9,10.7c-4.5,4.6-8.1,10-10.7,15.9C1.3,65.2,0,71.7,0,78.5v270
		c0,27.6,22.4,50,50,50h166v25h-35c-27.6,0-50,22.4-50,50c0,5.5,4.5,10,10,10h230c5.5,0,10-4.5,10-10c0-27.6-22.4-50-50-50h-35v-25
		h166c27.6,0,50-22.4,50-50v-270C512,71.8,510.7,65.2,508.1,59z M286,443.5h45c13,0,24.2,8.4,28.3,20H152.7
		c4.1-11.6,15.2-20,28.3-20h45c5.5,0,10-4.5,10-10v-35h40v35C276,439,280.5,443.5,286,443.5z M492,348.5c0,16.5-13.5,30-30,30H50
		c-16.5,0-30-13.5-30-30v-20h472V348.5z"/>
	
		<linearGradient id="SVGID_3_" gradientUnits="userSpaceOnUse" x1="82" y1="335.5" x2="152" y2="335.5" gradientTransform="matrix(1 0 0 -1 0 514)">
		<stop  offset="0" style="stop-color:#CCB05C;stop-opacity:0.4"/>
		<stop  offset="1" style="stop-color:#CCB05C"/>
	</linearGradient>
	<path class="st2" d="M132,138.5v46l-31.5-51.1c-2.3-3.8-6.9-5.6-11.2-4.4c-4.3,1.2-7.3,5.1-7.3,9.6v79.9c0,5.5,4.5,10,10,10
		s10-4.5,10-10V174l29.6,48.1c2.7,4.4,7.7,6.5,12.4,5.1c4.9-1.4,8-5.9,8-11.4v-77.3c0-5.5-4.5-10-10-10S132,133,132,138.5L132,138.5
		z"/>
	
		<linearGradient id="SVGID_4_" gradientUnits="userSpaceOnUse" x1="172" y1="335.5" x2="226" y2="335.5" gradientTransform="matrix(1 0 0 -1 0 514)">
		<stop  offset="0" style="stop-color:#CCB05C;stop-opacity:0.4"/>
		<stop  offset="1" style="stop-color:#CCB05C"/>
	</linearGradient>
	<path class="st3" d="M182,128.5c-5.5,0-10,4.5-10,10v80c0,5.5,4.5,10,10,10h34c5.5,0,10-4.5,10-10s-4.5-10-10-10h-24v-20h24
		c5.5,0,10-4.5,10-10s-4.5-10-10-10h-24v-20h24c5.5,0,10-4.5,10-10s-4.5-10-10-10H182z"/>
	
		<linearGradient id="SVGID_5_" gradientUnits="userSpaceOnUse" x1="370.0414" y1="335.5301" x2="430.0986" y2="335.5301" gradientTransform="matrix(1 0 0 -1 0 514)">
		<stop  offset="0" style="stop-color:#CCB05C;stop-opacity:0.4"/>
		<stop  offset="1" style="stop-color:#CCB05C"/>
	</linearGradient>
	<path class="st4" d="M401.5,208.5c-5,0-10-2.8-13.3-7.6c-3.2-4.5-9.4-5.6-13.9-2.5c-4.5,3.2-5.6,9.4-2.5,13.9
		c7.1,10.1,18.1,16.1,29.7,16.1c13.2,0,24.6-9.6,27.8-23.3c3.3-14.5-3.8-28.2-18.1-35.1c-1.9-0.9-13.9-6.6-16-8.2
		c-1.2-0.9-2.1-3.6-1.6-6.7c0.2-1.1,1-4.9,4-6.1c6.3-2.5,12.9,4.2,13.1,4.5c3.7,4,10,4.3,14.1,0.6s4.4-10.1,0.6-14.1
		c-5.8-6.4-19.8-15.5-35.1-9.5c-8.8,3.4-15,11.6-16.5,21.7c-1.5,10,1.9,19.7,8.9,25.4c3.9,3.1,18,9.8,19.8,10.6
		c7.9,3.8,7.9,9.5,7.2,12.6C408.8,204.6,405.7,208.5,401.5,208.5L401.5,208.5z"/>
	
		<linearGradient id="SVGID_6_" gradientUnits="userSpaceOnUse" x1="245.9978" y1="335.6011" x2="356.0013" y2="335.6011" gradientTransform="matrix(1 0 0 -1 0 514)">
		<stop  offset="0" style="stop-color:#CCB05C;stop-opacity:0.4"/>
		<stop  offset="1" style="stop-color:#CCB05C"/>
	</linearGradient>
	<path class="st5" d="M254,128.7c-5.4,1.1-8.9,6.4-7.8,11.8c0,0,16.4,79.8,16.6,80.2c1.7,4.6,6.2,7.7,11.1,7.7h0.1
		c5,0,9.5-3.2,11.1-7.9c0-0.1,15.8-49.3,15.8-49.3s15.8,49.3,15.8,49.4c1.7,4.6,6.2,7.7,11.1,7.7h0.1c5,0,9.5-3.2,11.1-7.9
		c0.1-0.4,1-4.3,1-4.3l15.6-75.7c1.1-5.4-2.4-10.7-7.8-11.8c-5.4-1.1-10.7,2.4-11.8,7.8l-9.9,48.1c0,0-16-49.8-16.1-50
		c-1.1-2.6-3.3-4.7-6.1-5.6c-5.3-1.7-10.9,1.2-12.6,6.5l-15.8,49.1l-9.9-48.2C264.7,131.1,259.4,127.6,254,128.7L254,128.7z"/>
</g>
</svg>
