<?xml version="1.0" encoding="utf-8"?>
<!-- Generator: Adobe Illustrator 24.2.1, SVG Export Plug-In . SVG Version: 6.00 Build 0)  -->
<svg version="1.1" id="Layer_1" xmlns="http://www.w3.org/2000/svg" xmlns:xlink="http://www.w3.org/1999/xlink" x="0px" y="0px"
	 viewBox="0 0 657.7 189.5" style="enable-background:new 0 0 657.7 189.5;" xml:space="preserve">
<style type="text/css">
	.st0{fill:#222155;}
	.st1{fill:#FFFFFF;}
	.st2{fill:#2C467F;}
	.st3{fill:#F5D95B;}
	.st4{fill:none;stroke:#FFFFFF;stroke-width:1.5679;stroke-miterlimit:10;}
</style>
<g>
	<ellipse class="st0" cx="96.4" cy="94.7" rx="96.4" ry="94.7"/>
	<g>
		<path class="st1" d="M76.3,169.5l-4.7,13.6l-2.4-0.8l-1.9-10.8l-3.2,9l-2.3-0.8l4.7-13.6L69,167l1.9,10.6l3-8.9L76.3,169.5z"/>
		<path class="st1" d="M53.8,159.3l2.5,1.4l-0.6,3.4l4.5,2.5l2.5-2.4l2.5,1.4l-11.4,10.2l-2.5-1.4L53.8,159.3z M55.2,166.7l-1,5.5
			l4.1-3.8L55.2,166.7z"/>
		<path class="st1" d="M51.4,157.3l-7.2,9.6l3,2.4l-1.5,1.9l-8.2-6.2l1.5-1.9l3,2.4l7.2-9.7L51.4,157.3z"/>
		<path class="st1" d="M44.9,152.1l-9.8,10.5l-1.9-1.8l9.8-10.5L44.9,152.1z"/>
		<path class="st1" d="M35.9,153.5c-1.1,0.9-2.3,1.6-3.3,1.9c-0.8,0.2-1.5,0.3-2.3,0.3s-1.5-0.2-2-0.5c-0.8-0.3-1.6-1-2.3-1.8
			c-1.2-1.5-1.7-3-1.4-4.9c0.3-1.7,1.4-3.4,3.2-4.9c1.8-1.5,3.6-2.1,5.3-2.1s3.2,0.8,4.4,2.3s1.7,3,1.5,4.9
			C38.6,150.4,37.6,152,35.9,153.5z M34.1,151.4c1.2-1,2-2,2.3-3.2c0.2-1,0-2-0.7-2.8s-1.6-1.2-2.6-1.2s-2.3,0.6-3.5,1.6s-2,2-2.3,3
			s0,1.9,0.7,2.8c0.7,0.8,1.6,1.2,2.6,1.2C31.6,153,32.7,152.6,34.1,151.4z"/>
		<path class="st1" d="M32.3,137.5l-12.5,7.1l-1.2-2.3l5.8-9.4l-8.4,4.7l-1.2-2.1l12.5-7.1l1.2,2.3l-5.6,9.1l8.1-4.6L32.3,137.5z"/>
		<path class="st1" d="M22,115l1,2.7l-2.7,2.1l1.7,4.9l3.4-0.1l0.9,2.6l-15.2,0.1l-0.9-2.6L22,115z M18.3,121.4l-4.4,3.5l5.6-0.1
			L18.3,121.4z"/>
		<path class="st1" d="M21.8,113.4l-14,2.6l-0.5-2.6l11.6-2.1l-1.2-6.4l2.4-0.5L21.8,113.4z"/>
		<path class="st1" d="M5.3,96.9l0.1-2.6l7.8,0.3c1.2,0,2,0,2.4,0c0.6-0.1,1.1-0.3,1.5-0.8c0.3-0.5,0.6-1,0.6-1.7
			c0-0.8-0.1-1.4-0.5-1.7c-0.3-0.3-0.7-0.7-1.2-0.8c-0.5-0.1-1.4-0.1-2.5-0.2l-7.9-0.3l0.1-2.6l7.6,0.3c1.7,0.1,2.9,0.2,3.6,0.3
			c0.7,0.2,1.2,0.5,1.8,0.9c0.5,0.5,0.8,0.9,1.1,1.6c0.2,0.7,0.3,1.5,0.3,2.5c0,1.2-0.2,2.1-0.6,2.8c-0.3,0.7-0.8,1.1-1.2,1.5
			c-0.6,0.3-1,0.6-1.6,0.7c-0.8,0.1-2,0.2-3.6,0.1L5.3,96.9z"/>
		<path class="st1" d="M20.4,84.2l-14.1-3l0.6-2.5l10.5-3.2l-9.4-2l0.6-2.4l14.1,3l-0.6,2.6L11.9,80l9.1,2L20.4,84.2z"/>
		<path class="st1" d="M23.6,71.5L10,66.8l0.9-2.5L24.5,69L23.6,71.5z"/>
		<path class="st1" d="M26.7,63.5l-15-2l1.2-2.6L24,60.5L15.7,53l1.2-2.5l11,10.4L26.7,63.5z"/>
		<path class="st1" d="M30.7,55.6l-11.9-8.2l5.5-7.9l2,1.4l-4,5.8l2.6,1.8l3.7-5.4l2,1.4l-3.7,5.4l3.3,2.3l4.2-6l2,1.4L30.7,55.6z"
			/>
		<path class="st1" d="M37.8,45.6l-10.2-10l3.8-4c1-1,1.8-1.6,2.4-1.9c0.7-0.2,1.4-0.3,2-0.1c0.8,0.2,1.4,0.6,2,1.1
			c0.8,0.8,1.2,1.6,1.4,2.5c0.1,0.9-0.2,1.8-0.8,2.8c0.7-0.1,1.2-0.2,1.8-0.1c0.6,0,1.5,0.2,2.7,0.6l3.2,0.8L44,39.6l-3.7-0.8
			c-1.2-0.3-2.1-0.5-2.5-0.5s-0.7,0-1,0.1c-0.2,0.1-0.6,0.5-1,0.8l-0.3,0.3l4.3,4.2L37.8,45.6z M33.7,37.9l1.4-1.4
			c0.9-0.9,1.4-1.5,1.5-1.8s0.1-0.7,0.1-0.9c-0.1-0.3-0.2-0.7-0.6-0.9c-0.3-0.3-0.7-0.6-1.1-0.6c-0.3,0-0.8,0.1-1.1,0.3
			c-0.2,0.1-0.7,0.6-1.4,1.4L31,35.5L33.7,37.9z"/>
		<path class="st1" d="M43.8,33.1l1.9-1.7c0.7,0.7,1.4,1,2,1.1c0.7,0.1,1.2-0.1,1.9-0.6c0.7-0.5,1.1-1,1.2-1.6c0.1-0.6,0-1-0.3-1.5
			c-0.2-0.2-0.5-0.5-0.7-0.6c-0.3-0.1-0.7-0.1-1.1,0.1c-0.3,0.1-1,0.3-2,0.8c-1.4,0.6-2.5,0.7-3.3,0.6c-1.1-0.1-2-0.7-2.7-1.6
			c-0.5-0.6-0.7-1.2-0.8-2s0.1-1.5,0.5-2.1c0.3-0.7,0.9-1.4,1.8-1.9c1.4-1,2.5-1.4,3.7-1.2c1.1,0.1,2.1,0.8,2.9,1.8l-2,1.7
			c-0.6-0.6-1-0.8-1.6-0.9c-0.5,0-1,0.1-1.6,0.6s-1,0.9-1.1,1.5c-0.1,0.3,0,0.7,0.2,1c0.2,0.2,0.5,0.5,0.8,0.5
			c0.5,0,1.2-0.1,2.5-0.7c1.2-0.5,2.1-0.8,2.9-0.9c0.7-0.1,1.4,0,2,0.3c0.7,0.3,1.2,0.8,1.8,1.6c0.5,0.7,0.8,1.4,0.9,2.3
			c0.1,0.8-0.1,1.6-0.5,2.4c-0.5,0.7-1,1.5-1.9,2.1c-1.4,1-2.6,1.4-3.8,1.2C46.1,34.9,44.9,34.2,43.8,33.1z"/>
		<path class="st1" d="M57.1,29.5L50,17.1l2.3-1.4l7.1,12.4L57.1,29.5z"/>
		<path class="st1" d="M64.5,25.6l-4.9-11l-3.5,1.6l-1-2.3l9.5-4.2l1,2.3l-3.5,1.6l4.9,11L64.5,25.6z"/>
		<path class="st1" d="M75.4,21.6l-1.6-5.9L67,8.9l3-0.8l4.4,4.7l1.5-6.3l2.9-0.8L76.3,15l1.6,5.9L75.4,21.6z"/>
		<path class="st1" d="M88.2,11.6c0-1.5,0.1-2.7,0.5-3.7c0.2-0.8,0.7-1.4,1.1-2c0.5-0.6,1-1,1.7-1.4c0.8-0.5,1.7-0.6,2.8-0.7
			c1.9,0,3.5,0.6,4.6,1.8s1.8,3,1.8,5.4s-0.5,4.2-1.6,5.5c-1.1,1.4-2.6,2-4.5,2s-3.5-0.6-4.6-1.8C88.9,15.7,88.2,14,88.2,11.6z
			 M90.9,11.5c0,1.6,0.5,2.8,1.1,3.7c0.7,0.8,1.6,1.2,2.6,1.2s1.9-0.5,2.6-1.4s0.9-2.1,0.9-3.7c0-1.7-0.5-2.8-1-3.6
			c-0.7-0.8-1.6-1.1-2.6-1.1c-1.1,0-1.9,0.5-2.6,1.2C91.1,8.6,90.8,9.8,90.9,11.5z"/>
		<path class="st1" d="M103.1,18.7l2-14.2l8.8,1.2l-0.3,2.4l-6.2-0.9l-0.5,3.4l5.4,0.8l-0.3,2.4l-5.4-0.8l-0.9,6.1L103.1,18.7z"/>
		<path class="st1" d="M119.3,21.8l5.3-13.3l3.6,1.5l-1.5,9.9l5.8-8.2l3.6,1.5l-5.3,13.3l-2.3-0.9l4.2-10.5l-6.7,9.6l-2.4-0.9
			l1.8-11.5l-4.2,10.5L119.3,21.8z"/>
		<path class="st1" d="M136.5,21.5c0.8-1.2,1.6-2.1,2.5-2.8c0.7-0.5,1.4-0.8,2-1c0.8-0.2,1.5-0.2,2.1-0.2c0.9,0.1,1.8,0.5,2.7,1
			c1.6,1,2.6,2.4,2.8,4.2c0.2,1.7-0.2,3.6-1.5,5.5c-1.2,1.9-2.7,3.2-4.4,3.6c-1.7,0.5-3.3,0.2-5-0.8c-1.6-1-2.6-2.4-2.8-4.2
			C134.8,25.2,135.3,23.4,136.5,21.5z M138.9,22.8c-0.9,1.4-1.2,2.6-1.1,3.6c0.1,1.1,0.6,1.9,1.5,2.5s1.8,0.7,2.8,0.3
			s1.9-1.2,2.8-2.6c0.9-1.4,1.2-2.6,1.1-3.6c-0.1-1-0.7-1.8-1.6-2.5c-0.9-0.6-1.9-0.7-2.8-0.3C140.7,20.6,139.8,21.5,138.9,22.8z"/>
		<path class="st1" d="M154.6,25.1l3.5,3.3c0.8,0.8,1.4,1.4,1.6,1.9c0.3,0.7,0.6,1.5,0.6,2.3s-0.2,1.7-0.7,2.6
			c-0.5,0.9-1.1,1.8-2,2.8c-0.8,0.9-1.6,1.5-2.4,1.9c-0.9,0.6-1.9,0.9-2.7,0.9c-0.7,0-1.4-0.1-2.1-0.5c-0.6-0.2-1.2-0.7-1.9-1.4
			l-3.6-3.4L154.6,25.1z M154.9,28.6l-6.4,7L150,37c0.6,0.5,0.9,0.8,1.2,1s0.8,0.3,1.1,0.3c0.5,0,0.9-0.2,1.5-0.6
			c0.6-0.3,1.2-0.9,2-1.7s1.2-1.5,1.6-2c0.2-0.6,0.5-1,0.5-1.6c0-0.5-0.1-0.9-0.5-1.4c-0.2-0.3-0.7-0.8-1.5-1.6L154.9,28.6z"/>
		<path class="st1" d="M154.3,44.7l11.4-8.8l5.9,7.7l-1.9,1.5l-4.3-5.5l-2.5,1.9l4,5.2l-1.9,1.5l-4-5.2l-3,2.4l4.4,5.8l-1.9,1.5
			L154.3,44.7z"/>
		<path class="st1" d="M161.6,54.4l12.6-6.8l2.6,4.9c0.7,1.2,1,2.1,1.1,2.8s-0.1,1.4-0.5,2c-0.5,0.7-1,1.1-1.7,1.6
			c-0.9,0.6-1.9,0.7-2.7,0.5c-0.9-0.2-1.7-0.7-2.4-1.7c0,0.7-0.2,1.2-0.5,1.8c-0.2,0.6-0.7,1.4-1.4,2.4l-1.7,2.7l-1.5-2.8l1.8-3.2
			c0.7-1.1,1-1.8,1.2-2.3c0.1-0.3,0.2-0.7,0.1-1c0-0.3-0.2-0.7-0.5-1.2l-0.2-0.5l-5.3,2.8L161.6,54.4z M170.2,52.8l0.9,1.7
			c0.6,1.1,1,1.8,1.2,2s0.6,0.3,0.9,0.3c0.3,0,0.7-0.1,1.1-0.2c0.5-0.2,0.7-0.6,0.9-0.9c0.1-0.3,0.1-0.7,0-1.1
			c-0.1-0.2-0.3-0.8-0.9-1.7l-1-1.8L170.2,52.8z"/>
		<path class="st1" d="M167.6,66.2l13.7-4.5L182,64l-7.5,8.1l9.1-3l0.8,2.3l-13.7,4.5l-0.8-2.5l7.2-7.9l-8.9,2.9L167.6,66.2z"/>
		<path class="st1" d="M172.4,84l14.2-1.4l0.2,2.6l-11.7,1.1l0.6,6.5l-2.4,0.2L172.4,84z"/>
		<path class="st1" d="M172.6,106.8l0.2-2.8l3.4-0.9l0.3-5.2l-3.2-1.2l0.2-2.8l14,6l-0.2,2.8L172.6,106.8z M178.5,102.4l5.4-1.5
			l-5.2-2.1L178.5,102.4z"/>
		<path class="st1" d="M172.2,108.2l14,3.4l-0.6,2.5L175,117l9.4,2.3l-0.6,2.4l-14-3.4l0.6-2.6l10.4-2.9l-9.1-2.3L172.2,108.2z"/>
		<path class="st1" d="M171.4,128.6l2.3,1l-2.3,5.2l-5.2-2.3c-0.3-0.8-0.5-1.7-0.5-2.8s0.2-2.1,0.7-3.2c0.6-1.2,1.4-2.3,2.3-2.8
			c1-0.7,2.1-1,3.4-1c1.2,0,2.6,0.3,3.8,0.8c1.4,0.6,2.5,1.4,3.3,2.4s1.4,2.1,1.5,3.4c0.1,0.9-0.1,2-0.6,3.2c-0.7,1.5-1.5,2.5-2.6,3
			c-1,0.6-2.3,0.7-3.5,0.3l0.6-2.6c0.7,0.1,1.4,0,1.9-0.2c0.6-0.3,1-0.8,1.4-1.5c0.5-1,0.5-2,0-2.9c-0.5-0.9-1.5-1.7-2.8-2.4
			c-1.6-0.7-2.8-0.9-4-0.6c-1,0.3-1.8,0.9-2.3,1.9c-0.2,0.5-0.3,1-0.3,1.7c0,0.6,0.1,1.1,0.2,1.7l1.7,0.7L171.4,128.6z"/>
		<path class="st1" d="M175,141.7l-1.5,2.1l-6.4-4.3c-1-0.7-1.7-1.1-2-1.2c-0.6-0.2-1.1-0.2-1.6-0.1c-0.6,0.1-1,0.6-1.4,1.1
			c-0.5,0.6-0.6,1.1-0.6,1.7c0.1,0.5,0.3,0.9,0.7,1.2c0.3,0.3,1,0.8,1.9,1.5l6.7,4.4l-1.5,2.1L163,146c-1.5-1-2.4-1.7-2.9-2.3
			s-0.9-1-1-1.7c-0.2-0.6-0.2-1.2-0.1-1.9c0.1-0.7,0.5-1.5,1-2.4c0.7-1,1.4-1.7,1.9-2c0.7-0.3,1.2-0.6,1.9-0.6s1.2,0.1,1.7,0.2
			c0.8,0.3,1.8,0.9,3.2,1.8L175,141.7z"/>
		<path class="st1" d="M147.5,153l1.9-2l3.2,1.5l3.6-3.7l-1.6-3l1.9-2l6.9,13.6l-1.9,2L147.5,153z M154.9,153.4l5.1,2.4l-2.6-5
			L154.9,153.4z"/>
		<path class="st1" d="M144.5,161.7l1.5,1.9l-4.5,3.4l-3.4-4.6c0.1-0.8,0.5-1.7,1-2.7s1.4-1.8,2.1-2.4c1.1-0.8,2.3-1.2,3.4-1.4
			c1.2-0.1,2.4,0.2,3.4,0.8c1.1,0.7,2,1.6,2.8,2.6c0.9,1.2,1.5,2.5,1.7,3.7s0.1,2.5-0.5,3.6c-0.3,0.9-1.1,1.7-2.1,2.4
			c-1.4,0.9-2.6,1.4-3.7,1.4c-1.1-0.1-2.3-0.6-3.3-1.5l1.8-1.9c0.6,0.5,1.1,0.7,1.8,0.8c0.7,0,1.2-0.2,1.9-0.7
			c0.9-0.7,1.5-1.6,1.5-2.6c0.1-1-0.3-2.3-1.2-3.5c-1-1.4-2-2.3-3-2.5c-1-0.3-2-0.1-2.9,0.6c-0.5,0.3-0.8,0.8-1.1,1.2
			c-0.3,0.6-0.6,1-0.7,1.6l1.1,1.5L144.5,161.7z"/>
		<path class="st1" d="M134.7,161.9l6.4,12.9l-8.7,4.3l-1.1-2.1l6.3-3.2l-1.5-2.8l-5.9,2.9l-1.1-2.1l5.9-2.9l-1.7-3.5l-6.5,3.3
			l-1.1-2.1L134.7,161.9z"/>
		<path class="st1" d="M125.8,171.4l-2.4,1c-0.5-0.9-0.9-1.5-1.5-1.7c-0.6-0.3-1.2-0.3-2-0.1s-1.4,0.7-1.7,1.1s-0.3,1-0.2,1.5
			c0.1,0.3,0.2,0.6,0.6,0.8c0.2,0.2,0.6,0.2,1.1,0.3c0.3,0,1,0,2.1,0c1.5,0,2.6,0.1,3.3,0.5c1,0.6,1.7,1.4,2,2.4
			c0.2,0.7,0.2,1.4,0.1,2.1c-0.1,0.7-0.6,1.4-1.1,1.9s-1.4,0.9-2.3,1.2c-1.6,0.5-2.8,0.5-3.8,0c-1-0.6-1.8-1.4-2.1-2.6l2.5-0.9
			c0.3,0.7,0.7,1.1,1.1,1.4c0.5,0.2,1,0.2,1.7,0s1.2-0.6,1.6-1c0.2-0.3,0.2-0.6,0.1-1c-0.1-0.3-0.3-0.6-0.7-0.7
			c-0.5-0.2-1.2-0.2-2.6-0.2c-1.4,0.1-2.4,0-3-0.1s-1.2-0.5-1.8-1c-0.6-0.5-0.9-1.1-1.1-2c-0.2-0.8-0.2-1.6-0.1-2.4
			c0.2-0.8,0.6-1.5,1.2-2c0.6-0.6,1.5-1,2.6-1.4c1.6-0.5,2.9-0.5,4,0.1C124.2,168.9,125.1,170,125.8,171.4z"/>
	</g>
	<ellipse class="st1" cx="96.5" cy="94.8" rx="71" ry="71"/>
	<ellipse class="st2" cx="96.5" cy="94.8" rx="62" ry="62"/>
	<path class="st1" d="M66.1,143.3L66,101.2l8.2,0.1l0.1,1.4c0,0,10.2-4.9,13.1,2.3l1,1.8l0.7,28c0,0,0.9,0.9,2.7,1.5
		c0,0,2.3-0.6,2.8-1.9l-0.2-33l8.4-0.6l0.1,1.2c0,0,7.5-2.3,10.5-0.1l1.9,1c0,0,8-5.6,13.3,0.7c0,0,1.9,2.1,1.8,4.2l-0.6,24.8
		c0,0,0,5.1,5.4,4.2l8.4-0.2l2.6,0.3l-5,6.8c0,0-2.7,2.6-3.5,2.9c-0.8,0.3-0.2-4.9-0.2-4.9s-13.1,5.3-15.8-7.6l0.2-26.4
		c0,0-1.6-2.9-5.6-1.8l0.6,36.1l-8.5,0.1l0.1-34.2c0,0,0.1-2.1-5.2-2.3l-0.2,29c0,0-3.2,8.9-11.3,8.5c0,0-9.4,0.3-11-8.1l-0.1-25.7
		c0,0-1.5-5.1-6-2.8l0.5,36.8H66.1L66.1,143.3z"/>
	<polygon class="st3" points="61.8,55.9 61.1,77.1 67.5,78.1 60.4,90.1 67.5,94.3 77.8,77.5 89.1,95.3 95.3,90.1 85,70.4 73.1,70.4 
		72,55.9 	"/>
	<polygon class="st3" points="61.4,46.1 61.4,54.2 72.4,53.2 72.7,48.4 	"/>
	<polygon class="st3" points="130.5,55.9 131.2,77.1 124.7,78.1 131.9,90.1 124.7,94.3 114.4,77.5 103.1,95.3 97,90.1 107.3,70.4 
		119.3,70.4 120.3,55.9 	"/>
	<polygon class="st3" points="130.9,46.1 130.9,54.2 119.9,53.2 119.6,48.4 	"/>
	<path class="st4" d="M75.1,50.7c0,0,3.3,8.6,21.6,0.8c0,0,16.1-5.8,20.9,0.7"/>
	<polygon class="st1" points="96.4,168.5 98.7,175.4 105.9,175.4 100.1,179.6 102.3,186.4 96.4,182.2 90.7,186.4 92.8,179.6 
		87.1,175.4 94.3,175.4 	"/>
</g>
<g>
	<path class="st3" d="M213.6,165.1V152h2.6l5.4,8.7V152h2.5v13.1h-2.7l-5.3-8.5v8.5H213.6z"/>
	<path class="st3" d="M238.6,165.1h-2.9l-1.1-3h-5.2l-1.1,3h-2.8l5.1-13.1h2.8L238.6,165.1z M233.8,160l-1.8-4.9l-1.8,4.9H233.8z"/>
	<path class="st3" d="M241.6,165.1v-10.9h-3.9V152h10.4v2.2h-3.9v10.9L241.6,165.1L241.6,165.1z"/>
	<path class="st3" d="M249.8,165.1V152h2.6v13.1H249.8z"/>
	<path class="st3" d="M254.4,158.7c0-1.3,0.2-2.5,0.6-3.4c0.3-0.7,0.7-1.3,1.2-1.8c0.5-0.5,1.1-0.9,1.7-1.2c0.8-0.3,1.8-0.5,2.8-0.5
		c1.9,0,3.5,0.6,4.6,1.8c1.2,1.2,1.7,2.9,1.7,5s-0.6,3.8-1.7,5s-2.7,1.8-4.6,1.8s-3.5-0.6-4.6-1.8
		C255,162.4,254.4,160.8,254.4,158.7z M257.1,158.6c0,1.5,0.3,2.6,1,3.4s1.6,1.1,2.6,1.1c1.1,0,1.9-0.4,2.6-1.1c0.7-0.8,1-1.9,1-3.4
		s-0.3-2.6-1-3.4s-1.5-1.1-2.6-1.1s-2,0.4-2.6,1.1C257.5,155.9,257.1,157.1,257.1,158.6z"/>
	<path class="st3" d="M269.2,165.1V152h2.6l5.4,8.7V152h2.5v13.1H277l-5.3-8.5v8.5H269.2z"/>
	<path class="st3" d="M294.2,165.1h-2.9l-1.1-3H285l-1.1,3h-2.8l5.1-13.1h2.8L294.2,165.1z M289.3,160l-1.8-4.9l-1.8,4.9H289.3z"/>
	<path class="st3" d="M295.7,165.1v-13h2.6v10.8h6.6v2.2H295.7z"/>
	<path class="st3" d="M311.5,152h2.6v7.1c0,1.1,0,1.9,0.1,2.2c0.1,0.5,0.4,1,0.8,1.3s1,0.5,1.7,0.5c0.8,0,1.3-0.2,1.7-0.5
		c0.4-0.3,0.6-0.7,0.7-1.1c0.1-0.4,0.1-1.2,0.1-2.2V152h2.6v6.9c0,1.6-0.1,2.7-0.2,3.3s-0.4,1.2-0.8,1.6c-0.4,0.4-0.9,0.8-1.5,1.1
		s-1.5,0.4-2.5,0.4c-1.3,0-2.2-0.1-2.8-0.4s-1.2-0.7-1.5-1.1c-0.4-0.5-0.6-0.9-0.7-1.5c-0.2-0.8-0.3-1.9-0.3-3.3L311.5,152
		L311.5,152z"/>
	<path class="st3" d="M324.8,165.1V152h2.6l5.4,8.7V152h2.5v13.1h-2.7l-5.3-8.5v8.5H324.8z"/>
	<path class="st3" d="M337.9,165.1V152h2.6v13.1H337.9z"/>
	<path class="st3" d="M346.4,165.1l-4.7-13.1h2.9l3.3,9.7l3.2-9.7h2.8l-4.7,13.1H346.4z"/>
	<path class="st3" d="M355.3,165.1V152h9.7v2.2h-7.1v2.9h6.6v2.2h-6.6v3.6h7.3v2.2L355.3,165.1L355.3,165.1z"/>
	<path class="st3" d="M367.5,165.1V152h5.6c1.4,0,2.4,0.1,3.1,0.4c0.6,0.2,1.1,0.7,1.5,1.3s0.6,1.3,0.6,2.1c0,1-0.3,1.8-0.9,2.4
		c-0.6,0.6-1.4,1-2.6,1.2c0.6,0.3,1,0.7,1.4,1.1c0.4,0.4,0.9,1.1,1.5,2.1l1.6,2.6h-3.2l-1.9-2.9c-0.7-1-1.1-1.7-1.4-1.9
		c-0.3-0.3-0.5-0.4-0.8-0.5s-0.7-0.1-1.3-0.1h-0.5v5.5h-2.7L367.5,165.1L367.5,165.1z M370.1,157.6h2c1.3,0,2.1-0.1,2.4-0.2
		c0.3-0.1,0.6-0.3,0.7-0.6c0.2-0.3,0.3-0.6,0.3-1s-0.1-0.8-0.4-1.1c-0.2-0.3-0.6-0.4-1-0.5c-0.2,0-0.9,0-1.9,0h-2.1V157.6z"/>
	<path class="st3" d="M380,160.9l2.6-0.3c0.2,0.9,0.5,1.5,0.9,1.9s1.1,0.6,1.9,0.6c0.9,0,1.5-0.2,1.9-0.5c0.4-0.4,0.6-0.8,0.6-1.3
		c0-0.3-0.1-0.6-0.3-0.8c-0.2-0.2-0.5-0.4-1-0.6c-0.3-0.1-1-0.3-2.1-0.6c-1.4-0.4-2.4-0.8-3-1.3c-0.8-0.7-1.2-1.6-1.2-2.6
		c0-0.7,0.2-1.3,0.6-1.9c0.4-0.6,0.9-1,1.6-1.3s1.6-0.5,2.6-0.5c1.6,0,2.9,0.4,3.7,1.1c0.8,0.7,1.3,1.7,1.3,2.9l-2.6,0.1
		c-0.1-0.7-0.4-1.2-0.7-1.5c-0.4-0.3-0.9-0.4-1.7-0.4c-0.8,0-1.4,0.2-1.8,0.5c-0.3,0.2-0.4,0.5-0.4,0.8s0.1,0.6,0.4,0.8
		c0.3,0.3,1.1,0.6,2.4,0.9c1.3,0.3,2.2,0.6,2.9,0.9c0.6,0.3,1.1,0.8,1.4,1.3c0.3,0.6,0.5,1.3,0.5,2.1s-0.2,1.5-0.6,2.1
		s-1,1.1-1.8,1.5c-0.8,0.3-1.7,0.5-2.9,0.5c-1.7,0-2.9-0.4-3.8-1.1S380.2,162.3,380,160.9z"/>
	<path class="st3" d="M392.8,165.1V152h2.6v13.1H392.8z"/>
	<path class="st3" d="M400.9,165.1v-10.9H397V152h10.4v2.2h-3.9v10.9L400.9,165.1L400.9,165.1z"/>
	<path class="st3" d="M412.6,165.1v-5.5l-4.8-7.6h3.1l3.1,5.2l3-5.2h3l-4.8,7.6v5.5H412.6z"/>
	<path class="st3" d="M425.6,158.7c0-1.3,0.2-2.5,0.6-3.4c0.3-0.7,0.7-1.3,1.2-1.8s1.1-0.9,1.7-1.2c0.8-0.3,1.8-0.5,2.8-0.5
		c1.9,0,3.5,0.6,4.6,1.8c1.2,1.2,1.7,2.9,1.7,5s-0.6,3.8-1.7,5s-2.7,1.8-4.6,1.8s-3.5-0.6-4.6-1.8
		C426.1,162.4,425.6,160.8,425.6,158.7z M428.3,158.6c0,1.5,0.3,2.6,1,3.4c0.7,0.8,1.6,1.1,2.6,1.1c1.1,0,1.9-0.4,2.6-1.1
		c0.7-0.8,1-1.9,1-3.4s-0.3-2.6-1-3.4s-1.5-1.1-2.6-1.1s-2,0.4-2.6,1.1C428.6,155.9,428.3,157.1,428.3,158.6z"/>
	<path class="st3" d="M440.4,165.1V152h9v2.2H443v3.1h5.5v2.2H443v5.6H440.4z"/>
	<path class="st3" d="M456.6,165.1V152h4l2.4,8.9l2.4-8.9h4v13.1h-2.5v-10.3l-2.6,10.3h-2.5l-2.6-10.3v10.3H456.6z"/>
	<path class="st3" d="M471.3,158.7c0-1.3,0.2-2.5,0.6-3.4c0.3-0.7,0.7-1.3,1.2-1.8s1.1-0.9,1.7-1.2c0.8-0.3,1.8-0.5,2.8-0.5
		c1.9,0,3.5,0.6,4.6,1.8c1.2,1.2,1.7,2.9,1.7,5s-0.6,3.8-1.7,5s-2.7,1.8-4.6,1.8s-3.5-0.6-4.6-1.8S471.3,160.8,471.3,158.7z
		 M474,158.6c0,1.5,0.3,2.6,1,3.4c0.7,0.8,1.6,1.1,2.6,1.1s1.9-0.4,2.6-1.1s1-1.9,1-3.4s-0.3-2.6-1-3.4s-1.5-1.1-2.6-1.1
		s-2,0.4-2.6,1.1C474.4,155.9,474,157.1,474,158.6z"/>
	<path class="st3" d="M486.1,152h4.8c1.1,0,1.9,0.1,2.5,0.3c0.8,0.2,1.4,0.6,2,1.2c0.5,0.6,1,1.3,1.3,2.1s0.4,1.9,0.4,3.1
		c0,1.1-0.1,2-0.4,2.8c-0.3,1-0.8,1.7-1.4,2.3c-0.5,0.4-1.1,0.8-1.9,1c-0.6,0.2-1.4,0.3-2.3,0.3h-5V152z M488.7,154.3v8.7h2
		c0.7,0,1.3,0,1.6-0.1c0.4-0.1,0.8-0.3,1.1-0.5c0.3-0.3,0.5-0.7,0.7-1.3s0.3-1.4,0.3-2.4s-0.1-1.8-0.3-2.3s-0.4-1-0.8-1.3
		c-0.3-0.3-0.7-0.5-1.2-0.6c-0.4-0.1-1.1-0.1-2.2-0.1L488.7,154.3L488.7,154.3z"/>
	<path class="st3" d="M499.3,165.1V152h9.7v2.2h-7.1v2.9h6.6v2.2h-6.6v3.6h7.3v2.2L499.3,165.1L499.3,165.1z"/>
	<path class="st3" d="M511.5,165.1V152h5.6c1.4,0,2.4,0.1,3.1,0.4c0.6,0.2,1.1,0.7,1.5,1.3s0.6,1.3,0.6,2.1c0,1-0.3,1.8-0.9,2.4
		c-0.6,0.6-1.4,1-2.6,1.2c0.6,0.3,1,0.7,1.4,1.1c0.4,0.4,0.9,1.1,1.5,2.1l1.6,2.6h-3.2l-1.9-2.9c-0.7-1-1.1-1.7-1.4-1.9
		c-0.3-0.3-0.5-0.4-0.8-0.5s-0.7-0.1-1.3-0.1h-0.5v5.5h-2.7L511.5,165.1L511.5,165.1z M514.2,157.6h2c1.3,0,2.1-0.1,2.4-0.2
		c0.3-0.1,0.6-0.3,0.7-0.6c0.2-0.3,0.3-0.6,0.3-1s-0.1-0.8-0.4-1.1c-0.2-0.3-0.6-0.4-1-0.5c-0.2,0-0.9,0-1.9,0h-2.1V157.6z"/>
	<path class="st3" d="M524.7,165.1V152h2.6l5.4,8.7V152h2.5v13.1h-2.7l-5.3-8.5v8.5H524.7z"/>
	<path class="st3" d="M543.1,165.1v-13h2.6v10.8h6.6v2.2H543.1z"/>
	<path class="st3" d="M566,165.1h-2.9l-1.1-3h-5.2l-1.1,3h-2.8L558,152h2.8L566,165.1z M561.1,160l-1.8-4.9l-1.8,4.9H561.1z"/>
	<path class="st3" d="M567.4,165.1V152h2.6l5.4,8.7V152h2.5v13.1h-2.7l-5.3-8.5v8.5H567.4z"/>
	<path class="st3" d="M586.7,160.3v-2.2h5.7v5.2c-0.6,0.5-1.4,1-2.4,1.4c-1.1,0.4-2.1,0.6-3.2,0.6c-1.4,0-2.6-0.3-3.6-0.9
		s-1.8-1.4-2.3-2.5s-0.8-2.2-0.8-3.5c0-1.4,0.3-2.6,0.9-3.6c0.6-1.1,1.4-1.9,2.5-2.4c0.8-0.4,1.9-0.7,3.1-0.7c1.6,0,2.9,0.3,3.8,1
		c0.9,0.7,1.5,1.6,1.8,2.8l-2.6,0.5c-0.2-0.6-0.5-1.2-1-1.5c-0.5-0.4-1.1-0.6-1.9-0.6c-1.2,0-2.1,0.4-2.8,1.1c-0.7,0.7-1,1.8-1,3.3
		c0,1.6,0.3,2.7,1,3.5s1.6,1.2,2.7,1.2c0.6,0,1.1-0.1,1.7-0.3c0.6-0.2,1-0.5,1.4-0.8v-1.7L586.7,160.3L586.7,160.3z"/>
	<path class="st3" d="M594.8,152h2.6v7.1c0,1.1,0,1.9,0.1,2.2c0.1,0.5,0.4,1,0.8,1.3c0.4,0.3,1,0.5,1.7,0.5c0.8,0,1.3-0.2,1.7-0.5
		s0.6-0.7,0.7-1.1c0.1-0.4,0.1-1.2,0.1-2.2V152h2.6v6.9c0,1.6-0.1,2.7-0.2,3.3c-0.1,0.6-0.4,1.2-0.8,1.6c-0.4,0.4-0.9,0.8-1.5,1.1
		s-1.5,0.4-2.5,0.4c-1.3,0-2.2-0.1-2.8-0.4s-1.2-0.7-1.5-1.1s-0.6-0.9-0.7-1.5c-0.2-0.8-0.3-1.9-0.3-3.3L594.8,152L594.8,152z"/>
	<path class="st3" d="M619.9,165.1H617l-1.1-3h-5.2l-1.1,3h-2.8l5.1-13.1h2.8L619.9,165.1z M615,160l-1.8-4.9l-1.8,4.9H615z"/>
	<path class="st3" d="M627.4,160.3v-2.2h5.7v5.2c-0.6,0.5-1.4,1-2.4,1.4c-1.1,0.4-2.1,0.6-3.2,0.6c-1.4,0-2.6-0.3-3.6-0.9
		s-1.8-1.4-2.3-2.5s-0.8-2.2-0.8-3.5c0-1.4,0.3-2.6,0.9-3.6c0.6-1.1,1.4-1.9,2.5-2.4c0.8-0.4,1.9-0.7,3.1-0.7c1.6,0,2.9,0.3,3.8,1
		c0.9,0.7,1.5,1.6,1.8,2.8l-2.6,0.5c-0.2-0.6-0.5-1.2-1-1.5c-0.5-0.4-1.1-0.6-1.9-0.6c-1.2,0-2.1,0.4-2.8,1.1c-0.7,0.7-1,1.8-1,3.3
		c0,1.6,0.3,2.7,1,3.5s1.6,1.2,2.7,1.2c0.6,0,1.1-0.1,1.7-0.3c0.6-0.2,1-0.5,1.4-0.8v-1.7L627.4,160.3L627.4,160.3z"/>
	<path class="st3" d="M635.5,165.1V152h9.7v2.2h-7.1v2.9h6.6v2.2h-6.6v3.6h7.3v2.2L635.5,165.1L635.5,165.1z"/>
	<path class="st3" d="M647.1,160.9l2.6-0.3c0.2,0.9,0.5,1.5,0.9,1.9s1.1,0.6,1.9,0.6c0.9,0,1.5-0.2,1.9-0.5s0.6-0.8,0.6-1.3
		c0-0.3-0.1-0.6-0.3-0.8s-0.5-0.4-1-0.6c-0.3-0.1-1-0.3-2.1-0.6c-1.4-0.4-2.4-0.8-3-1.3c-0.8-0.7-1.2-1.6-1.2-2.6
		c0-0.7,0.2-1.3,0.6-1.9s0.9-1,1.6-1.3c0.7-0.3,1.6-0.5,2.6-0.5c1.6,0,2.9,0.4,3.7,1.1c0.8,0.7,1.3,1.7,1.3,2.9l-2.6,0.1
		c-0.1-0.7-0.4-1.2-0.7-1.5c-0.4-0.3-0.9-0.4-1.7-0.4s-1.4,0.2-1.8,0.5c-0.3,0.2-0.4,0.5-0.4,0.8s0.1,0.6,0.4,0.8
		c0.3,0.3,1.1,0.6,2.4,0.9c1.3,0.3,2.2,0.6,2.9,0.9c0.6,0.3,1.1,0.8,1.4,1.3c0.3,0.6,0.5,1.3,0.5,2.1s-0.2,1.5-0.6,2.1
		s-1,1.1-1.8,1.5c-0.8,0.3-1.7,0.5-2.9,0.5c-1.7,0-2.9-0.4-3.8-1.1S647.2,162.3,647.1,160.9z"/>
</g>
<g>
	<g>
		<path class="st0" d="M213,24.1h13.1l17.1,25.1V24.1h13.2v45.4h-13.2l-17-24.9v24.9H213V24.1z"/>
		<polygon class="st0" points="244.3,67.6 224.2,38.1 224.2,67.6 215,67.6 215,26.1 225.1,26.1 245.2,55.8 245.2,26.1 254.5,26.1 
			254.5,67.6 		"/>
		<path class="st0" d="M295.4,24.1h14v27.1c0,2.7-0.4,5.2-1.3,7.6c-0.8,2.4-2.1,4.5-3.9,6.3c-1.8,1.8-3.7,3-5.6,3.8
			c-2.7,1-6,1.5-9.8,1.5c-2.2,0-4.6-0.2-7.2-0.5s-4.8-0.9-6.6-1.8c-1.8-0.9-3.4-2.2-4.8-3.9c-1.5-1.7-2.5-3.4-3-5.2
			c-0.9-2.9-1.3-5.5-1.3-7.7V24.1h14v27.7c0,2.5,0.7,4.4,2.1,5.8c1.4,1.4,3.3,2.1,5.7,2.1c2.4,0,4.3-0.7,5.7-2.1
			c1.4-1.4,2.1-3.3,2.1-5.8V24.1H295.4z"/>
		<path class="st0" d="M288.7,68.3c-2.1,0-4.5-0.2-7-0.5c-2.4-0.3-4.3-0.8-5.9-1.6c-1.5-0.8-2.9-2-4.2-3.5c-1.3-1.5-2.1-3-2.6-4.5
			c-0.8-2.7-1.2-5.1-1.2-7.1v-25h10v25.7c0,3,0.9,5.4,2.6,7.2c1.8,1.8,4.2,2.7,7.1,2.7c3,0,5.3-0.9,7.1-2.6c1.8-1.8,2.6-4.2,2.6-7.3
			V26.1h10v25.1c0,2.4-0.4,4.8-1.1,6.9c-0.7,2.1-1.9,3.9-3.5,5.5c-1.6,1.6-3.2,2.7-4.9,3.3C295.4,67.9,292.3,68.3,288.7,68.3z"/>
		<path class="st0" d="M318.5,24.1H337l7.1,27.6l7.1-27.6h18.5v45.4h-11.5V34.9l-8.9,34.7h-10.4L330,34.9v34.7h-11.5V24.1z"/>
		<polygon class="st0" points="360.1,67.6 360.1,34.9 356.2,34.4 347.7,67.6 340.4,67.6 332,34.4 328,34.9 328,67.6 320.5,67.6 
			320.5,26.1 335.4,26.1 342.2,52.3 346,52.3 352.7,26.1 367.6,26.1 367.6,67.6 		"/>
		<path class="st0" d="M378.6,24.1h14v34.2h21.9v11.2h-36V24.1H378.6z"/>
		<polygon class="st0" points="380.6,67.6 380.6,26.1 390.6,26.1 390.6,60.4 412.5,60.4 412.5,67.6 		"/>
		<path class="st0" d="M213.1,133.6V88.1h23.4c4.3,0,7.7,0.4,9.9,1.1c2.3,0.7,4.1,2.1,5.5,4.1s2.1,4.5,2.1,7.4
			c0,2.5-0.5,4.7-1.6,6.5s-2.6,3.3-4.4,4.4c-1.2,0.7-2.8,1.3-4.9,1.8c1.7,0.6,2.9,1.1,3.7,1.7c0.5,0.4,1.3,1.2,2.2,2.4
			s1.6,2.2,2,2.8l6.8,13.2h-15.9l-7.5-13.9c-1-1.8-1.8-3-2.5-3.5c-1-0.7-2.2-1.1-3.4-1.1h-1.2v18.4h-14.2V133.6z M227.2,106.5h5.9
			c0.6,0,1.9-0.2,3.7-0.6c0.9-0.2,1.7-0.7,2.3-1.4s0.9-1.6,0.9-2.6c0-1.5-0.5-2.6-1.4-3.4s-2.7-1.2-5.2-1.2h-6.2V106.5z"/>
		<path class="st0" d="M243.1,131.6l-6.9-12.8c-1.1-2.1-2.1-3.4-3.1-4.2c-1.4-1-2.9-1.4-4.6-1.4h-3.2v18.4h-10.1V90.1h21.4
			c4.1,0,7.3,0.3,9.3,1c1.9,0.6,3.4,1.7,4.5,3.4c1.2,1.7,1.7,3.7,1.7,6.2c0,2.1-0.4,4-1.3,5.5c-0.9,1.6-2.1,2.8-3.7,3.8
			c-1,0.6-2.5,1.1-4.3,1.6l-7,1.6l6.8,2.3c1.8,0.6,2.7,1.1,3.1,1.4c0.2,0.1,0.7,0.6,1.9,2c1.1,1.4,1.6,2.1,1.7,2.5l5.3,10.3
			L243.1,131.6L243.1,131.6z M225.2,108.5h7.9c0.5,0,1.5-0.1,4.2-0.7c1.4-0.3,2.5-1,3.4-2.2c0.9-1.1,1.3-2.4,1.3-3.9
			c0-2.6-1.1-4.1-2.1-4.9c-1.3-1.1-3.4-1.6-6.5-1.6h-8.2L225.2,108.5L225.2,108.5z"/>
		<path class="st0" d="M290.2,126.1h-15.9l-2.2,7.5h-14.3l17.1-45.4h15.3l17.1,45.4h-14.7L290.2,126.1z M287.3,116.2l-5-16.3
			l-5,16.3H287.3z"/>
		<path class="st0" d="M294,131.6l-2.3-7.5h-18.9l-2.2,7.5h-10l15.6-41.4h12.5l15.6,41.4H294z M274.6,118.2H290L282.3,93
			L274.6,118.2z"/>
		<path class="st0" d="M307.5,88.1h13.3l4.8,25.4l7-25.4h13.3l7,25.4l4.8-25.4H371l-10,45.4h-13.8l-8-28.6l-7.9,28.6h-13.8
			L307.5,88.1z"/>
		<polygon class="st0" points="348.8,131.6 339.3,97.5 329.8,131.6 319.2,131.6 310,90.1 319.2,90.1 323.7,113.9 327.5,114.1 
			334.2,90.1 344.4,90.1 351.1,114.1 354.9,113.9 359.4,90.1 368.6,90.1 359.4,131.6 		"/>
		<path class="st0" d="M403.6,126.1h-15.9l-2.2,7.5h-14.3l17.1-45.4h15.3l17.1,45.4H406L403.6,126.1z M400.7,116.2l-5-16.3l-5,16.3
			H400.7z"/>
		<path class="st0" d="M407.3,131.6l-2.3-7.5h-18.9l-2.2,7.5h-10l15.6-41.4H402l15.6,41.4H407.3z M388,118.2h15.4L395.7,93
			L388,118.2z"/>
		<path class="st0" d="M425,88.1h14v34.2h22v11.2h-36V88.1z"/>
		<polygon class="st0" points="427,131.6 427,90.1 437.1,90.1 437.1,124.4 459,124.4 459,131.6 		"/>
		<path class="st0" d="M467.3,88.1h23.3c5.1,0,8.9,1.2,11.4,3.6s3.8,5.9,3.8,10.3c0,4.6-1.4,8.2-4.1,10.8c-2.8,2.6-7,3.9-12.6,3.9
			h-7.7v16.9h-14.1L467.3,88.1L467.3,88.1z M481.4,107.5h3.4c2.7,0,4.6-0.5,5.7-1.4s1.6-2.1,1.6-3.6c0-1.4-0.5-2.6-1.4-3.6
			c-1-1-2.7-1.5-5.4-1.5h-4L481.4,107.5L481.4,107.5z"/>
		<path class="st0" d="M469.3,131.6V90.1h21.3c4.5,0,7.9,1,10,3.1c2.1,2,3.2,4.9,3.2,8.9s-1.1,7.1-3.5,9.3
			c-2.4,2.2-6.2,3.3-11.3,3.3h-9.7v16.9H469.3z M479.4,109.5h5.4c3.2,0,5.5-0.6,7-1.9s2.3-3.1,2.3-5.1s-0.7-3.6-2-5
			c-1.4-1.4-3.6-2.1-6.8-2.1h-6v14.1H479.4z"/>
		<path class="st0" d="M513.8,88.1h14.1v45.4h-14.1V88.1z"/>
		<rect x="515.8" y="90.1" class="st0" width="10.1" height="41.4"/>
		<path class="st0" d="M538,88.1h13.1l17.1,25.1V88.1h13.2v45.4h-13.2l-17-24.9v24.9H538V88.1z"/>
		<polygon class="st0" points="569.3,131.6 549.2,102.1 549.2,131.6 540,131.6 540,90.1 550,90.1 570.2,119.8 570.2,90.1 
			579.4,90.1 579.4,131.6 		"/>
		<path class="st0" d="M591,88.1h20.9c4.1,0,7.4,0.6,10,1.7c2.5,1.1,4.6,2.7,6.3,4.8c1.7,2.1,2.9,4.5,3.6,7.3
			c0.7,2.8,1.1,5.7,1.1,8.8c0,4.9-0.6,8.6-1.7,11.3s-2.6,4.9-4.6,6.7s-4.1,3-6.3,3.6c-3.1,0.8-5.9,1.2-8.4,1.2H591V88.1z M605,98.4
			v24.8h3.4c2.9,0,5-0.3,6.3-1c1.2-0.7,2.2-1.8,2.9-3.4s1.1-4.3,1.1-7.9c0-4.8-0.8-8.1-2.4-9.9c-1.6-1.8-4.2-2.7-7.8-2.7H605V98.4z"
			/>
		<path class="st0" d="M593,131.6V90.1h18.9c3.8,0,6.9,0.5,9.2,1.5c2.2,1,4.1,2.4,5.5,4.2c1.5,1.9,2.6,4.1,3.2,6.6
			c0.7,2.6,1,5.4,1,8.3c0,4.6-0.5,8.1-1.5,10.5s-2.4,4.4-4.1,6c-1.7,1.6-3.6,2.6-5.5,3.1c-2.9,0.8-5.5,1.2-7.9,1.2H593V131.6z
			 M603,125.2h5.4c3.3,0,5.6-0.4,7.2-1.2c1.6-0.9,2.9-2.3,3.8-4.4c0.8-1.9,1.2-4.7,1.2-8.7c0-5.4-0.9-9-2.9-11.2s-5.1-3.3-9.3-3.3
			H603V125.2z"/>
		<path class="st0" d="M640.7,88.1h14.1v45.4h-14.1V88.1z"/>
		<rect x="642.7" y="90.1" class="st0" width="10.1" height="41.4"/>
	</g>
</g>
<g>
	<ellipse class="st0" cx="-78.6" cy="309.6" rx="96.4" ry="94.7"/>
	<g>
		<path class="st1" d="M-98.7,384.4l-4.7,13.6l-2.4-0.8l-1.9-10.8l-3.2,9l-2.3-0.8l4.7-13.6l2.5,0.9l1.9,10.6l3-8.9L-98.7,384.4z"/>
		<path class="st1" d="M-121.3,374.2l2.5,1.4l-0.6,3.4l4.5,2.5l2.5-2.4l2.5,1.4l-11.4,10.2l-2.5-1.4L-121.3,374.2z M-119.8,381.5
			l-1,5.5l4.1-3.8L-119.8,381.5z"/>
		<path class="st1" d="M-123.7,372.2l-7.2,9.6l3,2.4l-1.5,1.9l-8.2-6.2l1.5-1.9l3,2.4l7.2-9.7L-123.7,372.2z"/>
		<path class="st1" d="M-130.1,367l-9.8,10.5l-1.9-1.8l9.8-10.5L-130.1,367z"/>
		<path class="st1" d="M-139.1,368.3c-1.1,0.9-2.3,1.6-3.3,1.9c-0.8,0.2-1.5,0.3-2.3,0.3s-1.5-0.2-2-0.5c-0.8-0.3-1.6-1-2.3-1.8
			c-1.2-1.5-1.7-3-1.4-4.9c0.3-1.7,1.4-3.4,3.2-4.9s3.6-2.1,5.3-2.1s3.2,0.8,4.4,2.3s1.7,3,1.5,4.9
			C-136.4,365.3-137.4,366.9-139.1,368.3z M-140.9,366.3c1.2-1,2-2,2.3-3.2c0.2-1,0-2-0.7-2.8s-1.6-1.2-2.6-1.2s-2.3,0.6-3.5,1.6
			s-2,2-2.3,3c-0.2,1,0,1.9,0.7,2.8c0.7,0.8,1.6,1.2,2.6,1.2C-143.4,367.9-142.3,367.4-140.9,366.3z"/>
		<path class="st1" d="M-142.7,352.4l-12.5,7.1l-1.2-2.3l5.8-9.4l-8.4,4.7l-1.2-2.1l12.5-7.1l1.2,2.3l-5.6,9.1l8.1-4.6L-142.7,352.4
			z"/>
		<path class="st1" d="M-153,329.8l1,2.7l-2.7,2.1l1.7,4.9l3.4-0.1l0.9,2.6l-15.2,0.1l-0.9-2.6L-153,329.8z M-156.7,336.3l-4.4,3.5
			l5.6-0.1L-156.7,336.3z"/>
		<path class="st1" d="M-153.2,328.2l-14,2.6l-0.5-2.6l11.6-2.1l-1.2-6.4l2.4-0.5L-153.2,328.2z"/>
		<path class="st1" d="M-169.7,311.8l0.1-2.6l7.8,0.3c1.2,0,2,0,2.4,0c0.6-0.1,1.1-0.3,1.5-0.8c0.3-0.5,0.6-1,0.6-1.7
			c0-0.8-0.1-1.4-0.5-1.7c-0.3-0.3-0.7-0.7-1.2-0.8c-0.5-0.1-1.4-0.1-2.5-0.2l-7.9-0.3l0.1-2.6l7.6,0.3c1.7,0.1,2.9,0.2,3.6,0.3
			c0.7,0.2,1.2,0.5,1.8,0.9c0.5,0.5,0.8,0.9,1.1,1.6c0.2,0.7,0.3,1.5,0.3,2.5c0,1.2-0.2,2.1-0.6,2.8c-0.3,0.7-0.8,1.1-1.2,1.5
			c-0.6,0.3-1,0.6-1.6,0.7c-0.8,0.1-2,0.2-3.6,0.1L-169.7,311.8z"/>
		<path class="st1" d="M-154.6,299.1l-14.1-3l0.6-2.5l10.5-3.2l-9.4-2l0.6-2.4l14.1,3l-0.6,2.6l-10.3,3.2l9.1,2L-154.6,299.1z"/>
		<path class="st1" d="M-151.4,286.3l-13.6-4.7l0.9-2.5l13.6,4.7L-151.4,286.3z"/>
		<path class="st1" d="M-148.4,278.3l-15-2l1.2-2.6l11.1,1.6l-8.2-7.5l1.2-2.5l11,10.4L-148.4,278.3z"/>
		<path class="st1" d="M-144.3,270.4l-11.9-8.2l5.5-7.9l2,1.4l-4,5.8l2.6,1.8l3.7-5.4l2,1.4l-3.7,5.4l3.3,2.3l4.2-6l2,1.4
			L-144.3,270.4z"/>
		<path class="st1" d="M-137.2,260.5l-10.3-10.1l3.8-4c1-1,1.8-1.6,2.4-1.9c0.7-0.2,1.4-0.3,2-0.1c0.8,0.2,1.4,0.6,2,1.1
			c0.8,0.8,1.2,1.6,1.4,2.5c0.1,0.9-0.2,1.8-0.8,2.8c0.7-0.1,1.2-0.2,1.8-0.1c0.6,0,1.5,0.2,2.7,0.6l3.2,0.8l-2.1,2.3l-3.7-0.8
			c-1.2-0.3-2.1-0.5-2.5-0.5c-0.3,0-0.7,0-1,0.1c-0.2,0.1-0.6,0.5-1,0.8l-0.3,0.3l4.3,4.2L-137.2,260.5z M-141.4,252.8l1.4-1.4
			c0.9-0.9,1.4-1.5,1.5-1.8s0.1-0.7,0.1-0.9c-0.1-0.3-0.2-0.7-0.6-0.9c-0.3-0.3-0.7-0.6-1.1-0.6c-0.3,0-0.8,0.1-1.1,0.3
			c-0.2,0.1-0.7,0.6-1.4,1.4l-1.5,1.5L-141.4,252.8z"/>
		<path class="st1" d="M-131.2,247.9l1.9-1.7c0.7,0.7,1.4,1,2,1.1c0.7,0.1,1.2-0.1,1.9-0.6c0.7-0.5,1.1-1,1.2-1.6s0-1-0.3-1.5
			c-0.2-0.2-0.5-0.5-0.7-0.6c-0.3-0.1-0.7-0.1-1.1,0.1c-0.3,0.1-1,0.3-2,0.8c-1.4,0.6-2.5,0.7-3.3,0.6c-1.1-0.1-2-0.7-2.7-1.6
			c-0.5-0.6-0.7-1.2-0.8-2s0.1-1.5,0.5-2.1c0.3-0.7,0.9-1.4,1.8-1.9c1.4-1,2.5-1.4,3.7-1.2c1.1,0.1,2.1,0.8,2.9,1.8l-2,1.7
			c-0.6-0.6-1-0.8-1.6-0.9c-0.5,0-1,0.1-1.6,0.6s-1,0.9-1.1,1.5c-0.1,0.3,0,0.7,0.2,1c0.2,0.2,0.5,0.5,0.8,0.5
			c0.5,0,1.2-0.1,2.5-0.7c1.2-0.5,2.1-0.8,2.9-0.9c0.7-0.1,1.4,0,2,0.3s1.2,0.8,1.8,1.6c0.5,0.7,0.8,1.4,0.9,2.3
			c0.1,0.8-0.1,1.6-0.5,2.4c-0.5,0.7-1,1.5-1.9,2.1c-1.4,1-2.6,1.4-3.8,1.2C-129,249.8-130.1,249.1-131.2,247.9z"/>
		<path class="st1" d="M-117.9,244.3l-7.1-12.4l2.3-1.4l7.1,12.4L-117.9,244.3z"/>
		<path class="st1" d="M-110.6,240.5l-4.9-11l-3.5,1.6l-1-2.3l9.5-4.2l1,2.3l-3.5,1.6l4.9,11L-110.6,240.5z"/>
		<path class="st1" d="M-99.6,236.4l-1.6-5.9l-6.8-6.8l2.9-0.8l4.4,4.7l1.5-6.3l2.9-0.8l-2.5,9.3l1.6,5.9L-99.6,236.4z"/>
		<path class="st1" d="M-86.8,226.5c0-1.5,0.1-2.7,0.5-3.7c0.2-0.8,0.7-1.4,1.1-2c0.5-0.6,1-1,1.7-1.4c0.8-0.5,1.7-0.6,2.8-0.7
			c1.9,0,3.5,0.6,4.6,1.8s1.8,3,1.8,5.4s-0.5,4.2-1.6,5.5c-1.1,1.4-2.6,2-4.5,2s-3.5-0.6-4.6-1.8C-86.2,230.6-86.8,228.9-86.8,226.5
			z M-84.1,226.4c0,1.6,0.5,2.8,1.1,3.7c0.7,0.8,1.6,1.2,2.6,1.2s1.9-0.5,2.6-1.4s0.9-2.1,0.9-3.7c0-1.7-0.5-2.8-1-3.6
			c-0.7-0.8-1.6-1.1-2.6-1.1c-1.1,0-1.9,0.5-2.6,1.2C-83.9,223.4-84.2,224.7-84.1,226.4z"/>
		<path class="st1" d="M-71.9,233.6l2-14.2l8.8,1.2l-0.3,2.4l-6.2-0.9l-0.5,3.4l5.4,0.8l-0.3,2.4l-5.4-0.8l-0.9,6.1L-71.9,233.6z"/>
		<path class="st1" d="M-55.8,236.7l5.3-13.3l3.6,1.5l-1.5,9.9l5.8-8.2l3.6,1.5l-5.3,13.3l-2.3-0.9l4.2-10.5l-6.7,9.6l-2.4-0.9
			l1.8-11.5l-4.2,10.5L-55.8,236.7z"/>
		<path class="st1" d="M-38.5,236.3c0.8-1.2,1.6-2.1,2.5-2.8c0.7-0.5,1.4-0.8,2-1c0.8-0.2,1.5-0.2,2.1-0.2c0.9,0.1,1.8,0.5,2.7,1
			c1.6,1,2.6,2.4,2.8,4.2c0.2,1.7-0.2,3.6-1.5,5.5c-1.2,1.9-2.7,3.2-4.4,3.6c-1.7,0.5-3.3,0.2-5-0.8c-1.6-1-2.6-2.4-2.8-4.2
			C-40.2,240-39.7,238.2-38.5,236.3z M-36.1,237.7c-0.9,1.4-1.2,2.6-1.1,3.6c0.1,1.1,0.6,1.9,1.5,2.5s1.8,0.7,2.8,0.3
			c1-0.3,1.9-1.2,2.8-2.6c0.9-1.4,1.2-2.6,1.1-3.6s-0.7-1.8-1.6-2.5c-0.9-0.6-1.9-0.7-2.8-0.3C-34.3,235.4-35.2,236.3-36.1,237.7z"
			/>
		<path class="st1" d="M-20.4,239.9l3.5,3.3c0.8,0.8,1.4,1.4,1.6,1.9c0.3,0.7,0.6,1.5,0.6,2.3s-0.2,1.7-0.7,2.6
			c-0.5,0.9-1.1,1.8-2,2.8c-0.8,0.9-1.6,1.5-2.4,1.9c-0.9,0.6-1.9,0.9-2.7,0.9c-0.7,0-1.4-0.1-2.1-0.5c-0.6-0.2-1.2-0.7-1.9-1.4
			l-3.6-3.4L-20.4,239.9z M-20.1,243.4l-6.4,7l1.5,1.4c0.6,0.5,0.9,0.8,1.2,1c0.3,0.2,0.8,0.3,1.1,0.3c0.5,0,0.9-0.2,1.5-0.6
			c0.6-0.3,1.2-0.9,2-1.7s1.2-1.5,1.6-2c0.2-0.6,0.5-1,0.5-1.6c0-0.5-0.1-0.9-0.5-1.4c-0.2-0.3-0.7-0.8-1.5-1.6L-20.1,243.4z"/>
		<path class="st1" d="M-20.8,259.6l11.4-8.8l5.9,7.7l-1.9,1.5l-4.3-5.5l-2.5,1.9l4,5.2l-1.9,1.5l-4-5.2l-3,2.4l4.4,5.8l-1.9,1.5
			L-20.8,259.6z"/>
		<path class="st1" d="M-13.4,269.3l12.6-6.8l2.6,4.9c0.7,1.2,1,2.1,1.1,2.8s-0.1,1.4-0.5,2c-0.5,0.7-1,1.1-1.7,1.6
			c-0.9,0.6-1.9,0.7-2.7,0.5c-0.9-0.2-1.7-0.7-2.4-1.7c0,0.7-0.2,1.2-0.5,1.8s-0.7,1.4-1.4,2.4l-1.7,2.7l-1.5-2.8l1.8-3.2
			c0.7-1.1,1-1.8,1.2-2.3c0.1-0.3,0.2-0.7,0.1-1c0-0.3-0.2-0.7-0.5-1.2l-0.2-0.5l-5.3,2.8L-13.4,269.3z M-4.9,267.7l0.9,1.7
			c0.6,1.1,1,1.8,1.2,2s0.6,0.3,0.9,0.3s0.7-0.1,1.1-0.2c0.5-0.2,0.7-0.6,0.9-0.9c0.1-0.3,0.1-0.7,0-1.1c-0.1-0.2-0.3-0.8-0.9-1.7
			l-1-1.8L-4.9,267.7z"/>
		<path class="st1" d="M-7.5,281l13.7-4.5l0.8,2.4l-7.5,8.1l9.1-3l0.8,2.3l-13.7,4.5l-0.8-2.5l7.2-7.9l-8.9,2.9L-7.5,281z"/>
		<path class="st1" d="M-2.6,298.9l14.2-1.4l0.2,2.6l-11.7,1.1l0.6,6.5l-2.4,0.2L-2.6,298.9z"/>
		<path class="st1" d="M-2.5,321.7l0.2-2.8l3.4-0.9l0.3-5.2l-3.2-1.2l0.2-2.8l14,6l-0.2,2.8L-2.5,321.7z M3.5,317.3l5.4-1.5
			l-5.2-2.1L3.5,317.3z"/>
		<path class="st1" d="M-2.8,323l14,3.4l-0.6,2.5l-10.6,3l9.4,2.3l-0.6,2.4l-14-3.4l0.6-2.6l10.4-2.9l-9.1-2.3L-2.8,323z"/>
		<path class="st1" d="M-3.6,343.5l2.3,1l-2.3,5.2l-5.2-2.3c-0.3-0.8-0.5-1.7-0.5-2.8s0.2-2.1,0.7-3.2c0.6-1.2,1.4-2.3,2.3-2.8
			c1-0.7,2.1-1,3.4-1s2.6,0.3,3.8,0.8c1.4,0.6,2.5,1.4,3.3,2.4s1.4,2.1,1.5,3.4c0.1,0.9-0.1,2-0.6,3.2c-0.7,1.5-1.5,2.5-2.6,3
			c-1,0.6-2.3,0.7-3.5,0.3l0.6-2.6c0.7,0.1,1.4,0,1.9-0.2c0.6-0.3,1-0.8,1.4-1.5c0.5-1,0.5-2,0-2.9s-1.5-1.7-2.8-2.4
			c-1.6-0.7-2.8-0.9-4-0.6c-1,0.3-1.8,0.9-2.3,1.9c-0.2,0.5-0.3,1-0.3,1.7c0,0.6,0.1,1.1,0.2,1.7l1.7,0.7L-3.6,343.5z"/>
		<path class="st1" d="M0,356.6l-1.5,2.1l-6.4-4.3c-1-0.7-1.7-1.1-2-1.2c-0.6-0.2-1.1-0.2-1.6-0.1c-0.6,0.1-1,0.6-1.4,1.1
			c-0.5,0.6-0.6,1.1-0.6,1.7c0.1,0.5,0.3,0.9,0.7,1.2c0.3,0.3,1,0.8,1.9,1.5l6.7,4.4l-1.5,2.1L-12,361c-1.5-1-2.4-1.7-2.9-2.3
			s-0.9-1-1-1.7c-0.2-0.6-0.2-1.2-0.1-1.9c0.1-0.7,0.5-1.5,1-2.4c0.7-1,1.4-1.7,1.9-2c0.7-0.3,1.2-0.6,1.9-0.6s1.2,0.1,1.7,0.2
			c0.8,0.3,1.8,0.9,3.2,1.8L0,356.6z"/>
		<path class="st1" d="M-27.6,367.9l1.9-2l3.2,1.5l3.6-3.7l-1.6-3l1.9-2l6.9,13.6l-1.9,2L-27.6,367.9z M-20.1,368.2l5.1,2.4l-2.6-5
			L-20.1,368.2z"/>
		<path class="st1" d="M-30.5,376.6l1.5,1.9l-4.5,3.4l-3.4-4.6c0.1-0.8,0.5-1.7,1-2.7s1.4-1.8,2.1-2.4c1.1-0.8,2.3-1.2,3.4-1.4
			c1.2-0.1,2.4,0.2,3.4,0.8c1.1,0.7,2,1.6,2.8,2.6c0.9,1.2,1.5,2.5,1.7,3.7s0.1,2.5-0.5,3.6c-0.3,0.9-1.1,1.7-2.1,2.4
			c-1.4,0.9-2.6,1.4-3.7,1.4c-1.1-0.1-2.3-0.6-3.3-1.5l1.8-1.9c0.6,0.5,1.1,0.7,1.8,0.8c0.7,0,1.2-0.2,1.9-0.7
			c0.9-0.7,1.5-1.6,1.5-2.6c0.1-1-0.3-2.3-1.2-3.5c-1-1.4-2-2.3-3-2.5c-1-0.3-2-0.1-2.9,0.6c-0.5,0.3-0.8,0.8-1.1,1.2
			c-0.3,0.6-0.6,1-0.7,1.6l1.1,1.5L-30.5,376.6z"/>
		<path class="st1" d="M-40.3,376.8l6.4,12.9l-8.7,4.3l-1.1-2.1l6.3-3.2l-1.5-2.8l-5.9,2.9l-1.1-2.1l5.9-2.9l-1.7-3.5l-6.5,3.3
			l-1.1-2.1L-40.3,376.8z"/>
		<path class="st1" d="M-49.2,386.3l-2.4,1c-0.5-0.9-0.9-1.5-1.5-1.7c-0.6-0.3-1.2-0.3-2-0.1c-0.8,0.2-1.4,0.7-1.7,1.1
			c-0.3,0.5-0.3,1-0.2,1.5c0.1,0.3,0.2,0.6,0.6,0.8c0.2,0.2,0.6,0.2,1.1,0.3c0.3,0,1,0,2.1,0c1.5,0,2.6,0.1,3.3,0.5
			c1,0.6,1.7,1.4,2,2.4c0.2,0.7,0.2,1.4,0.1,2.1c-0.1,0.7-0.6,1.4-1.1,1.9s-1.4,0.9-2.3,1.2c-1.6,0.5-2.8,0.5-3.8,0
			c-1-0.6-1.8-1.4-2.1-2.6l2.5-0.9c0.3,0.7,0.7,1.1,1.1,1.4c0.5,0.2,1,0.2,1.7,0s1.2-0.6,1.6-1c0.2-0.3,0.2-0.6,0.1-1
			c-0.1-0.3-0.3-0.6-0.7-0.7c-0.5-0.2-1.2-0.2-2.6-0.2c-1.4,0.1-2.4,0-3-0.1c-0.7-0.1-1.2-0.5-1.8-1s-0.9-1.1-1.1-2
			c-0.2-0.8-0.2-1.6-0.1-2.4c0.2-0.8,0.6-1.5,1.2-2c0.6-0.6,1.5-1,2.6-1.4c1.6-0.5,2.9-0.5,4,0.1C-50.8,383.8-49.9,384.8-49.2,386.3
			z"/>
	</g>
	<ellipse class="st1" cx="-78.6" cy="309.6" rx="71" ry="71"/>
	<ellipse class="st2" cx="-78.6" cy="309.6" rx="62" ry="62"/>
	<path class="st1" d="M-109,358.2l-0.1-42.1l8.2,0.1l0.1,1.4c0,0,10.2-4.9,13.1,2.3l1,1.8l0.7,28c0,0,0.9,0.9,2.7,1.5
		c0,0,2.3-0.6,2.8-1.9l-0.2-33l8.4-0.6l0.1,1.2c0,0,7.5-2.3,10.5-0.1l1.9,1c0,0,8-5.6,13.3,0.7c0,0,1.9,2.1,1.8,4.2l-0.6,24.8
		c0,0,0,5.1,5.4,4.2l8.4-0.2l2.6,0.3l-5,6.8c0,0-2.7,2.6-3.5,2.9s-0.2-4.9-0.2-4.9s-13.1,5.3-15.8-7.6l0.2-26.4c0,0-1.6-2.9-5.6-1.8
		l0.6,36.1l-8.5,0.1l0.1-34.2c0,0,0.1-2.1-5.2-2.3l-0.2,29c0,0-3.2,8.9-11.3,8.5c0,0-9.4,0.3-11-8.1l-0.1-25.7c0,0-1.5-5.1-6-2.8
		l0.5,36.8L-109,358.2L-109,358.2z"/>
	<polygon class="st3" points="-113.3,270.8 -113.9,292 -107.5,293 -114.6,305 -107.5,309.2 -97.2,292.3 -85.9,310.2 -79.7,305 
		-90,285.2 -102,285.2 -103,270.8 	"/>
	<polygon class="st3" points="-113.6,260.9 -113.6,269.1 -102.6,268 -102.3,263.3 	"/>
	<polygon class="st3" points="-44.5,270.8 -43.8,292 -50.4,293 -43.1,305 -50.4,309.2 -60.6,292.3 -71.9,310.2 -78,305 -67.8,285.2 
		-55.8,285.2 -54.8,270.8 	"/>
	<polygon class="st3" points="-44.2,260.9 -44.2,269.1 -55.1,268 -55.4,263.3 	"/>
	<path class="st4" d="M-99.9,265.6c0,0,3.3,8.6,21.6,0.8c0,0,16.1-5.8,20.9,0.7"/>
	<polygon class="st1" points="-78.6,383.3 -76.3,390.2 -69.1,390.2 -75,394.4 -72.7,401.3 -78.6,397 -84.4,401.3 -82.2,394.4 
		-88,390.2 -80.7,390.2 	"/>
</g>
<g>
	<text transform="matrix(1 0 0 1 37.2369 383.6997)" class="st2" style="font-family:'Arial-BoldMT'; font-size:18.3px;">NATIONAL UNIVERSITY OF MODERN LANGUAGES</text>
	<text transform="matrix(1 0 0 1 33.2371 283.0772)" class="st0" style="font-family:'Arial-Black'; font-size:63.4764px;">NUML</text>
	<text transform="matrix(1 0 0 1 33.2371 347.0772)" class="st0" style="font-family:'Arial-Black'; font-size:63.4764px;">RAWALPINDI</text>
</g>
<rect x="-28.2" y="-70.3" class="st0" width="36.2" height="36.2"/>
<rect x="21.6" y="-70.3" class="st2" width="36.2" height="36.2"/>
<rect x="74.4" y="-70.3" class="st3" width="36.2" height="36.2"/>
</svg>
