<?xml version="1.0" encoding="utf-8"?>
<!-- Generator: Adobe Illustrator 23.0.3, SVG Export Plug-In . SVG Version: 6.00 Build 0)  -->
<svg version="1.1" id="Capa_1" xmlns="http://www.w3.org/2000/svg" xmlns:xlink="http://www.w3.org/1999/xlink" x="0px" y="0px"
	 viewBox="0 0 512 512" style="enable-background:new 0 0 512 512;" xml:space="preserve">
<style type="text/css">
	.st0{fill:url(#SVGID_1_);}
	.st1{fill:url(#SVGID_2_);}
	.st2{fill:url(#SVGID_3_);}
	.st3{fill:url(#SVGID_4_);}
	.st4{fill:url(#SVGID_5_);}
	.st5{fill:url(#SVGID_6_);}
	.st6{fill:url(#SVGID_7_);}
	.st7{fill:url(#SVGID_8_);}
	.st8{fill:url(#SVGID_9_);}
	.st9{fill:url(#SVGID_10_);}
</style>
<g>
	
		<linearGradient id="SVGID_1_" gradientUnits="userSpaceOnUse" x1="246.2" y1="416.05" x2="350.4" y2="416.05" gradientTransform="matrix(1 0 0 -1 0 514)">
		<stop  offset="0" style="stop-color:#CCB05C;stop-opacity:0.4"/>
		<stop  offset="1" style="stop-color:#CCB05C"/>
	</linearGradient>
	<path class="st0" d="M258.7,150.2h79.2c6.9,0,12.5-5.6,12.5-12.5V58.2c0-6.9-5.6-12.5-12.5-12.5h-79.2c-6.9,0-12.5,5.6-12.5,12.5
		V77c0,4.1,3.4,7.5,7.5,7.5s7.5-3.4,7.5-7.5V60.7h74.2v74.5h-74.2v-22.1c0-4.1-3.4-7.5-7.5-7.5s-7.5,3.4-7.5,7.5v24.6
		C246.2,144.6,251.8,150.2,258.7,150.2z"/>
	
		<linearGradient id="SVGID_2_" gradientUnits="userSpaceOnUse" x1="111.5" y1="383.4" x2="228.7" y2="383.4" gradientTransform="matrix(1 0 0 -1 0 514)">
		<stop  offset="0" style="stop-color:#CCB05C;stop-opacity:0.4"/>
		<stop  offset="1" style="stop-color:#CCB05C"/>
	</linearGradient>
	<path class="st1" d="M119,138.1h102.2c4.1,0,7.5-3.4,7.5-7.5s-3.4-7.5-7.5-7.5H119c-4.1,0-7.5,3.4-7.5,7.5
		C111.5,134.7,114.8,138.1,119,138.1z"/>
	
		<linearGradient id="SVGID_3_" gradientUnits="userSpaceOnUse" x1="171.9" y1="320" x2="290" y2="320" gradientTransform="matrix(1 0 0 -1 0 514)">
		<stop  offset="0" style="stop-color:#CCB05C;stop-opacity:0.4"/>
		<stop  offset="1" style="stop-color:#CCB05C"/>
	</linearGradient>
	<path class="st2" d="M290,194c0-4.1-3.4-7.5-7.5-7.5H179.4c-4.1,0-7.5,3.4-7.5,7.5s3.4,7.5,7.5,7.5h103.1
		C286.6,201.5,290,198.1,290,194z"/>
	
		<linearGradient id="SVGID_4_" gradientUnits="userSpaceOnUse" x1="111.5" y1="416.1" x2="228.7" y2="416.1" gradientTransform="matrix(1 0 0 -1 0 514)">
		<stop  offset="0" style="stop-color:#CCB05C;stop-opacity:0.4"/>
		<stop  offset="1" style="stop-color:#CCB05C"/>
	</linearGradient>
	<path class="st3" d="M119,105.4h102.2c4.1,0,7.5-3.4,7.5-7.5s-3.4-7.5-7.5-7.5H119c-4.1,0-7.5,3.4-7.5,7.5
		C111.5,102.1,114.8,105.4,119,105.4z"/>
	
		<linearGradient id="SVGID_5_" gradientUnits="userSpaceOnUse" x1="111.5" y1="448.7" x2="228.7" y2="448.7" gradientTransform="matrix(1 0 0 -1 0 514)">
		<stop  offset="0" style="stop-color:#CCB05C;stop-opacity:0.4"/>
		<stop  offset="1" style="stop-color:#CCB05C"/>
	</linearGradient>
	<path class="st4" d="M119,72.8h102.2c4.1,0,7.5-3.4,7.5-7.5s-3.4-7.5-7.5-7.5H119c-4.1,0-7.5,3.4-7.5,7.5S114.8,72.8,119,72.8z"/>
	
		<linearGradient id="SVGID_6_" gradientUnits="userSpaceOnUse" x1="111.5" y1="237" x2="280.4" y2="237" gradientTransform="matrix(1 0 0 -1 0 514)">
		<stop  offset="0" style="stop-color:#CCB05C;stop-opacity:0.4"/>
		<stop  offset="1" style="stop-color:#CCB05C"/>
	</linearGradient>
	<path class="st5" d="M119,284.5h153.9c4.1,0,7.5-3.4,7.5-7.5s-3.4-7.5-7.5-7.5H119c-4.1,0-7.5,3.4-7.5,7.5S114.8,284.5,119,284.5
		L119,284.5z"/>
	
		<linearGradient id="SVGID_7_" gradientUnits="userSpaceOnUse" x1="111.5" y1="279" x2="248.2" y2="279" gradientTransform="matrix(1 0 0 -1 0 514)">
		<stop  offset="0" style="stop-color:#CCB05C;stop-opacity:0.4"/>
		<stop  offset="1" style="stop-color:#CCB05C"/>
	</linearGradient>
	<path class="st6" d="M119,242.5h121.7c4.1,0,7.5-3.4,7.5-7.5s-3.4-7.5-7.5-7.5H119c-4.1,0-7.5,3.4-7.5,7.5S114.8,242.5,119,242.5z"
		/>
	
		<linearGradient id="SVGID_8_" gradientUnits="userSpaceOnUse" x1="265.7" y1="279" x2="350.8" y2="279" gradientTransform="matrix(1 0 0 -1 0 514)">
		<stop  offset="0" style="stop-color:#CCB05C;stop-opacity:0.4"/>
		<stop  offset="1" style="stop-color:#CCB05C"/>
	</linearGradient>
	<path class="st7" d="M343.3,227.5h-70.1c-4.1,0-7.5,3.4-7.5,7.5s3.4,7.5,7.5,7.5h70.1c4.1,0,7.5-3.4,7.5-7.5
		S347.4,227.5,343.3,227.5z"/>
	
		<linearGradient id="SVGID_9_" gradientUnits="userSpaceOnUse" x1="0" y1="257.9219" x2="511.9833" y2="257.9219" gradientTransform="matrix(1 0 0 -1 0 514)">
		<stop  offset="0" style="stop-color:#CCB05C;stop-opacity:0.4"/>
		<stop  offset="1" style="stop-color:#CCB05C"/>
	</linearGradient>
	<path class="st8" d="M503.3,463.9c-0.1-0.1-0.2-0.2-0.3-0.3l-46.2-41.1c7.3-13.3,11.5-28.2,12-43.7c0.1-4.1-3.1-7.6-7.2-7.8
		c-4.1-0.1-7.6,3.1-7.8,7.2c-1.1,44.2-38.6,80.6-82.8,80.1c-45.7,0-82.9-37.3-82.9-83.2c-0.7-44.9,38-83.8,82.9-83.2
		c35,0,66.3,22.2,78.1,55.2c1.4,3.9,5.7,5.9,9.6,4.6c3.9-1.4,5.9-5.7,4.6-9.6c-12.5-35.2-44-60-80.4-64.5V12.5
		c0-6.9-5.6-12.5-12.5-12.5H91.5C84.6,0,79,5.6,79,12.5v27.1H52c-6.9,0-12.5,5.6-12.5,12.5v27.1h-27C5.6,79.3,0,84.9,0,91.8V466
		c0,6.9,5.6,12.5,12.5,12.5h238.8c6.9,0,12.5-5.6,12.5-12.5v-27.1h32.6c18,21.2,44.8,34.7,74.6,34.7c16.4,0,32.3-4.1,46.4-11.7
		l46.5,41.7c11.1,11,29,11.6,40.1,0.6C515.1,493.5,514.4,474.4,503.3,463.9L503.3,463.9z M94,15h273.9v262.3
		c-31.9,1-60.8,17.6-78.2,43.5h-30.5c-4.1,0-7.5,3.4-7.5,7.5s3.4,7.5,7.5,7.5h22.2c-1,2.3-1.9,4.6-2.8,7
		c-3.7,10.5-5.5,21.4-5.5,32.6c0,3,0.1,5.9,0.4,8.8H169.2c10.3-9.9,16.7-23.7,16.7-39.1v-9.3h40.8c4.1,0,7.5-3.4,7.5-7.5
		s-3.4-7.5-7.5-7.5h-48.3c-4.1,0-7.5,3.4-7.5,7.5V345c0,21.6-17.5,39.1-38.9,39.1H94V15z M54.5,423.8V321.3c0-4.1-3.4-7.5-7.5-7.5
		s-7.5,3.4-7.5,7.5v105c0,6.9,5.6,12.5,12.5,12.5h196.8v24.6H15V94.3h24.5v195.3c0,4.1,3.4,7.5,7.5,7.5s7.5-3.4,7.5-7.5v-235H79v337
		c0,4.1,3.4,7.5,7.5,7.5h189.6c2.2,8.7,5.5,17,9.9,24.6L54.5,423.8L54.5,423.8z M493.4,493.4c-5.2,5.2-14,4.6-19.4-1l-43.6-39.1
		c6.7-5.2,12.9-11.4,18.1-18.1l44.3,39.4C498,479.7,498.6,488.5,493.4,493.4L493.4,493.4z"/>
	
		<linearGradient id="SVGID_10_" gradientUnits="userSpaceOnUse" x1="307.0911" y1="138.7031" x2="434.9" y2="138.7031" gradientTransform="matrix(1 0 0 -1 0 514)">
		<stop  offset="0" style="stop-color:#CCB05C;stop-opacity:0.4"/>
		<stop  offset="1" style="stop-color:#CCB05C"/>
	</linearGradient>
	<path class="st9" d="M371,311.2c-34.6-0.5-64.5,29.5-63.9,64.1c0,35.3,28.7,64.1,63.9,64.1c35.3,0,63.9-28.8,63.9-64.1
		S406.3,311.2,371,311.2z M371,424.5c-27,0-48.9-22-48.9-49.1c-0.4-26.5,22.4-49.5,48.9-49.1c27,0,48.9,22,48.9,49.1
		C420,402.4,398,424.5,371,424.5z"/>
</g>
</svg>
