<?xml version="1.0" encoding="utf-8"?>
<!-- Generator: Adobe Illustrator 23.0.3, SVG Export Plug-In . SVG Version: 6.00 Build 0)  -->
<svg version="1.1" id="Capa_1" xmlns="http://www.w3.org/2000/svg" xmlns:xlink="http://www.w3.org/1999/xlink" x="0px" y="0px"
	 viewBox="0 0 480 480" style="enable-background:new 0 0 480 480;" xml:space="preserve">
<style type="text/css">
	.st0{fill:url(#SVGID_1_);}
	.st1{fill:url(#SVGID_2_);}
</style>
<g>
	<g>
		<g>
			
				<linearGradient id="SVGID_1_" gradientUnits="userSpaceOnUse" x1="-0.1372" y1="122.05" x2="480.1" y2="122.05" gradientTransform="matrix(1 0 0 -1 0 482)">
				<stop  offset="0" style="stop-color:#CCB05C;stop-opacity:0.4"/>
				<stop  offset="1" style="stop-color:#CCB05C"/>
			</linearGradient>
			<path class="st0" d="M441.9,280.3c-1.1-0.3-2.3-0.3-3.4-0.1L360,294.4V256c0-4.4-3.6-8-8-8h-48c-2.1,0-4.2,0.8-5.7,2.3L268.7,280
				h-49.4l-29.7-29.7c-1.5-1.5-3.5-2.3-5.7-2.3h-48c-4.4,0-8,3.6-8,8v38.1l-75.5-16.6c-3-0.9-6-1.5-9.1-2c-4.4-0.6-8.4,2.4-9.1,6.7
				c-0.6,4.2,2.1,8.1,6.2,9l8,1.8c9.8,3,18.4,9.1,24.6,17.3c2.3,3.1,4.2,6.5,5.7,10l-29.3-5.9c-2.3-1-4.8-1.7-7.3-2.1
				c-20.2-2.9-38.9,11.1-41.8,31.3c0,0,0,0,0,0.1c-3.4,24.2,13.4,46.5,37.5,50c2.5,0.4,5,0.5,7.6,0.5c1.1,0,2.1-0.2,3.2-0.3v0.3
				l87-8L98,426.5c-3,3.2-2.8,8.3,0.4,11.3c1.5,1.4,3.4,2.2,5.5,2.1h24v24c0,4.4,3.6,8,8,8c2.1,0,4.2-0.8,5.7-2.3l77.7-77.7h49.4
				l77.7,77.7c1.5,1.5,3.5,2.3,5.7,2.3c1.1,0,2.1-0.2,3.1-0.6c3-1.2,4.9-4.2,4.9-7.4v-24h24c4.4,0,8-3.6,8-8c0-2-0.8-4-2.2-5.5
				l-38.1-40.8l87.7,6.3c0.2,0,0.4,0,0.6,0c0.7,0,1.3-0.1,1.9-0.2c13.2-3.3,38.1-19.2,38.1-55.8S455.1,283.5,441.9,280.3z
				 M35.2,346.6L35.2,346.6c0.3-1.9,1.9-3.3,3.8-3.3c0.2,0,0.4,0,0.5,0l2.1-14.8c7.5,2,12.3,9.2,11.2,16.8
				c-0.8,5.7-6.1,9.7-11.9,8.9C37.2,353.8,34.6,350.4,35.2,346.6z M82.4,346.3c-2.9,20.4-21.8,34.5-42.2,31.6l0,0
				c-15.4-2.2-26.1-16.5-23.9-31.9c1.2-8.3,7.2-15,15.2-17.3c-6.5,2.7-11.2,8.6-12.2,15.6c-1.8,12.5,6.9,24,19.4,25.8
				c14.5,2.1,27.9-8,30-22.5l0,0c0.6-4.4,0.3-9-1-13.3l15.1,3C82.9,340.4,82.8,343.4,82.4,346.3z M86.7,374.7
				c6.1-7.5,10.1-16.5,11.5-26.1c2.4-16.7-1.9-33.7-11.9-47.3l41.7,9.1V344c0,4.4,3.6,8,8,8h31.7l-15.6,16.7L86.7,374.7z M208,380.7
				l-64,64V432c0-4.4-3.6-8-8-8h-13.6l37.3-39.9l1.1-0.1l-0.1-0.9l47.4-50.8v48.4H208z M208,308.7L180.7,336H144v-72h36.7l27.3,27.3
				V308.7z M264,312v64h-40v-80h40V312z M280,291.3l27.3-27.3H344v72h-36.7L280,308.7V291.3z M365.6,424H352c-4.4,0-8,3.6-8,8v12.7
				l-64-64v-48.4l47.5,50.9l-0.1,0.8l0.9,0.1L365.6,424z M439.1,375.9l-103.4-7.4L320.3,352H352c4.4,0,8-3.6,8-8v-33.3l79.5-14.4
				c5.4,2,24.5,11,24.5,39.8C464,365.5,444,374.2,439.1,375.9z"/>
			
				<linearGradient id="SVGID_2_" gradientUnits="userSpaceOnUse" x1="64.1896" y1="361.275" x2="416.3105" y2="361.275" gradientTransform="matrix(1 0 0 -1 0 482)">
				<stop  offset="0" style="stop-color:#CCB05C;stop-opacity:0.4"/>
				<stop  offset="1" style="stop-color:#CCB05C"/>
			</linearGradient>
			<path class="st1" d="M69.5,79.6L69.5,79.6l66.5,22.2V176c0,1,0.2,2,0.6,3c0.7,1.8,19,45,103.4,45v-16c-66,0-84.7-27.7-88-33.8
				v-67.1l85.5,28.5c1.6,0.6,3.4,0.6,5.1,0l37.5-12.5v6.4c-9,3.2-15.2,11.4-15.8,21l-16,80l15.7,3.1l12.2-60.9
				c1.3,0.7,2.6,1.4,4,1.9V232h16v-57.5c1.4-0.5,2.7-1.1,4-1.9l12.2,60.9l15.7-3.1l-16-80c-0.6-9.5-6.8-17.8-15.8-21v-11.7l32-10.7
				v74.5c-1.5,2-3.3,3.8-5.2,5.4l10.4,12.2c4-3.2,7.4-7.1,10-11.6c0.5-1.1,0.8-2.3,0.8-3.6v-82.2l66.5-22.2
				c4.2-1.4,6.5-5.9,5.1-10.1c-0.8-2.4-2.7-4.3-5.1-5.1l-168-56c-1.6-0.6-3.4-0.6-5.1,0l-168,56c-4.2,1.4-6.5,5.9-5.1,10.1
				C65.2,76.9,67.1,78.8,69.5,79.6z M288,160c-4.4,0-8-3.6-8-8s3.6-8,8-8s8,3.6,8,8S292.4,160,288,160z M240,24.4L382.7,72
				l-87.3,29.1c-0.6-1.6-1.8-3-3.3-4l-29.4-17.7c0.8-2.4,1.3-4.9,1.3-7.5c0-13.3-10.7-24-24-24s-24,10.7-24,24s10.7,24,24,24
				c4.5,0,9-1.3,12.8-3.8l24.7,14.8L240,119.6L97.3,72L240,24.4z M248,72c0,4.4-3.6,8-8,8s-8-3.6-8-8s3.6-8,8-8S248,67.6,248,72z"/>
		</g>
	</g>
</g>
</svg>
