<?xml version="1.0" encoding="utf-8"?>
<!-- Generator: Adobe Illustrator 23.0.3, SVG Export Plug-In . SVG Version: 6.00 Build 0)  -->
<svg version="1.1" id="Layer_3" xmlns="http://www.w3.org/2000/svg" xmlns:xlink="http://www.w3.org/1999/xlink" x="0px" y="0px"
	 viewBox="0 0 512 512" style="enable-background:new 0 0 512 512;" xml:space="preserve">
<style type="text/css">
	.st0{fill:url(#SVGID_1_);}
	.st1{fill:url(#SVGID_2_);}
	.st2{fill:url(#SVGID_3_);}
	.st3{fill:url(#SVGID_4_);}
	.st4{fill:url(#SVGID_5_);}
	.st5{fill:url(#SVGID_6_);}
	.st6{fill:url(#SVGID_7_);}
	.st7{fill:url(#SVGID_8_);}
	.st8{fill:url(#SVGID_9_);}
	.st9{fill:url(#SVGID_10_);}
	.st10{fill:url(#SVGID_11_);}
</style>
<g>
	
		<linearGradient id="SVGID_1_" gradientUnits="userSpaceOnUse" x1="8" y1="258" x2="504.025" y2="258" gradientTransform="matrix(1 0 0 -1 0 514)">
		<stop  offset="0" style="stop-color:#CCB05C;stop-opacity:0.4"/>
		<stop  offset="1" style="stop-color:#CCB05C"/>
	</linearGradient>
	<path class="st0" d="M501.7,390.3L409.3,298l6.7-6.7l2.3,2.3c1.6,1.6,3.6,2.3,5.7,2.3s4.1-0.8,5.7-2.3l24-24
		c3.1-3.1,3.1-8.2,0-11.3L408,212.7V64c0-30.9-25.1-56-56-56H48C25.9,8,8,25.9,8,48v64c0,4.4,3.6,8,8,8h56v344c0,22.1,17.9,40,40,40
		h288c22.1,0,40-17.9,40-40v-16c0-4.4-3.6-8-8-8h-24v-80.7l62.3,62.3c1.6,1.6,3.6,2.3,5.7,2.3s4.1-0.8,5.7-2.3l20-20
		C504.8,398.5,504.8,393.5,501.7,390.3z M360,324.7L331.3,296l44.7-44.7l28.7,28.7L360,324.7z M356.7,344L344,356.7L299.3,312
		l12.7-12.7L356.7,344z M424,276.7L379.3,232l12.7-12.7l44.7,44.7L424,276.7z M72,104H24V48c0-13.2,10.8-24,24-24s24,10.8,24,24V104
		z M424,464c0,13.2-10.8,24-24,24H144c5-6.7,8-15,8-24v-8h272V464z M392,440H144c-4.4,0-8,3.6-8,8v16c0,13.2-10.8,24-24,24
		s-24-10.8-24-24V48c0-9-3.1-17.3-8.2-24H352c22.1,0,40,17.9,40,40v136c-2,0-4.1,0.8-5.7,2.3l-24,24c-3.1,3.1-3.1,8.2,0,11.3
		l2.3,2.3L320,284.7l-2.3-2.3c-3.1-3.1-8.2-3.1-11.3,0l-24,24c-3.1,3.1-3.1,8.2,0,11.3l56,56c1.6,1.6,3.6,2.3,5.7,2.3
		s4.1-0.8,5.7-2.3l24-24c3.1-3.1,3.1-8.2,0-11.3l-2.3-2.3l6.7-6.7l14,14V440H392z M476,404.7L389.3,318l8.7-8.7l86.7,86.7L476,404.7
		z"/>
	
		<linearGradient id="SVGID_2_" gradientUnits="userSpaceOnUse" x1="112" y1="354" x2="376" y2="354" gradientTransform="matrix(1 0 0 -1 0 514)">
		<stop  offset="0" style="stop-color:#CCB05C;stop-opacity:0.4"/>
		<stop  offset="1" style="stop-color:#CCB05C"/>
	</linearGradient>
	<path class="st1" d="M112,152h264v16H112V152z"/>
	
		<linearGradient id="SVGID_3_" gradientUnits="userSpaceOnUse" x1="112" y1="290" x2="344" y2="290" gradientTransform="matrix(1 0 0 -1 0 514)">
		<stop  offset="0" style="stop-color:#CCB05C;stop-opacity:0.4"/>
		<stop  offset="1" style="stop-color:#CCB05C"/>
	</linearGradient>
	<path class="st2" d="M112,216h232v16H112V216z"/>
	
		<linearGradient id="SVGID_4_" gradientUnits="userSpaceOnUse" x1="112" y1="322" x2="376" y2="322" gradientTransform="matrix(1 0 0 -1 0 514)">
		<stop  offset="0" style="stop-color:#CCB05C;stop-opacity:0.4"/>
		<stop  offset="1" style="stop-color:#CCB05C"/>
	</linearGradient>
	<path class="st3" d="M112,184h264v16H112V184z"/>
	
		<linearGradient id="SVGID_5_" gradientUnits="userSpaceOnUse" x1="112" y1="418" x2="376" y2="418" gradientTransform="matrix(1 0 0 -1 0 514)">
		<stop  offset="0" style="stop-color:#CCB05C;stop-opacity:0.4"/>
		<stop  offset="1" style="stop-color:#CCB05C"/>
	</linearGradient>
	<path class="st4" d="M112,88h264v16H112V88z"/>
	
		<linearGradient id="SVGID_6_" gradientUnits="userSpaceOnUse" x1="112" y1="450" x2="376" y2="450" gradientTransform="matrix(1 0 0 -1 0 514)">
		<stop  offset="0" style="stop-color:#CCB05C;stop-opacity:0.4"/>
		<stop  offset="1" style="stop-color:#CCB05C"/>
	</linearGradient>
	<path class="st5" d="M112,56h264v16H112V56z"/>
	
		<linearGradient id="SVGID_7_" gradientUnits="userSpaceOnUse" x1="112" y1="386" x2="376" y2="386" gradientTransform="matrix(1 0 0 -1 0 514)">
		<stop  offset="0" style="stop-color:#CCB05C;stop-opacity:0.4"/>
		<stop  offset="1" style="stop-color:#CCB05C"/>
	</linearGradient>
	<path class="st6" d="M112,120h264v16H112V120z"/>
	
		<linearGradient id="SVGID_8_" gradientUnits="userSpaceOnUse" x1="112" y1="258" x2="328" y2="258" gradientTransform="matrix(1 0 0 -1 0 514)">
		<stop  offset="0" style="stop-color:#CCB05C;stop-opacity:0.4"/>
		<stop  offset="1" style="stop-color:#CCB05C"/>
	</linearGradient>
	<path class="st7" d="M112,248h216v16H112V248z"/>
	
		<linearGradient id="SVGID_9_" gradientUnits="userSpaceOnUse" x1="104" y1="162" x2="248" y2="162" gradientTransform="matrix(1 0 0 -1 0 514)">
		<stop  offset="0" style="stop-color:#CCB05C;stop-opacity:0.4"/>
		<stop  offset="1" style="stop-color:#CCB05C"/>
	</linearGradient>
	<path class="st8" d="M176,280c-39.7,0-72,32.3-72,72s32.3,72,72,72s72-32.3,72-72S215.7,280,176,280z M176,408
		c-30.9,0-56-25.1-56-56s25.1-56,56-56s56,25.1,56,56S206.9,408,176,408z"/>
	
		<linearGradient id="SVGID_10_" gradientUnits="userSpaceOnUse" x1="136" y1="162" x2="216" y2="162" gradientTransform="matrix(1 0 0 -1 0 514)">
		<stop  offset="0" style="stop-color:#CCB05C;stop-opacity:0.4"/>
		<stop  offset="1" style="stop-color:#CCB05C"/>
	</linearGradient>
	<path class="st9" d="M176,312c-22.1,0-40,17.9-40,40s17.9,40,40,40s40-17.9,40-40S198.1,312,176,312z M176,376
		c-13.2,0-24-10.8-24-24s10.8-24,24-24s24,10.8,24,24S189.2,376,176,376z"/>
	
		<linearGradient id="SVGID_11_" gradientUnits="userSpaceOnUse" x1="264" y1="110.0668" x2="360" y2="110.0668" gradientTransform="matrix(1 0 0 -1 0 514)">
		<stop  offset="0" style="stop-color:#CCB05C;stop-opacity:0.4"/>
		<stop  offset="1" style="stop-color:#CCB05C"/>
	</linearGradient>
	<path class="st10" d="M312,392c0-3.5-2.3-6.6-5.7-7.7c-3.4-1-7,0.3-9,3.2l-2.7,4c-6.8,10.3-18.3,16.4-30.7,16.4v16
		c14,0,27.1-5.5,36.9-15c5.7,9,15.7,15,27.1,15h32v-16h-32C319.2,408,312,400.8,312,392z"/>
</g>
</svg>
